<svg xmlns="http://www.w3.org/2000/svg" xmlns:xlink="http://www.w3.org/1999/xlink" xmlns:s="https://github.com/nturley/netlistsvg" width="720" height="896">
  <style>svg {
    stroke:#000;
    fill:none;
  }
  text {
    fill:#000;
    stroke:none;
    font-size:10px;
    font-weight: bold;
    font-family: "Courier New", monospace;
  }
  .nodelabel {
    text-anchor: middle;
  }
  .inputPortLabel {
    text-anchor: end;
  }
  .splitjoinBody {
    fill:#000;
  }</style>
  <g s:type="add" transform="translate(131,394)" s:width="25" s:height="25" id="cell_$add$alu.v:20$35">
    <s:alias val="$add"/>
    <circle r="12.5" cx="12.5" cy="12.5" class="cell_$add$alu.v:20$35"/>
    <line x1="7.5" x2="17.5" y1="12.5" y2="12.5" class="cell_$add$alu.v:20$35"/>
    <line x1="12.5" x2="12.5" y1="7.5" y2="17.5" class="cell_$add$alu.v:20$35"/>
    <g s:x="3" s:y="5" s:pid="A"/>
    <g s:x="3" s:y="20" s:pid="B"/>
    <g s:x="25" s:y="12.5" s:pid="Y"/>
  </g>
  <g s:type="and" transform="translate(322.6666666666667,198)" s:width="30" s:height="25" id="cell_$and$alu.v:38$41">
    <s:alias val="$and"/>
    <s:alias val="$logic_and"/>
    <s:alias val="$_AND_"/>
    <path d="M0,0 L0,25 L15,25 A15 12.5 0 0 0 15,0 Z" class="cell_$and$alu.v:38$41"/>
    <g s:x="0" s:y="5" s:pid="A"/>
    <g s:x="0" s:y="20" s:pid="B"/>
    <g s:x="30" s:y="12.5" s:pid="Y"/>
  </g>
  <g s:type="not" transform="translate(678,861.5)" s:width="30" s:height="20" id="cell_$logic_not$alu.v:21$38">
    <s:alias val="$_NOT_"/>
    <s:alias val="$not"/>
    <s:alias val="$logic_not"/>
    <path d="M0,0 L0,20 L20,10 Z" class="cell_$logic_not$alu.v:21$38"/>
    <circle cx="23" cy="10" r="3" class="cell_$logic_not$alu.v:21$38"/>
    <g s:x="0" s:y="10" s:pid="A"/>
    <g s:x="25" s:y="10" s:pid="Y"/>
  </g>
  <g s:type="generic" transform="translate(303,268)" s:width="30" s:height="40" id="cell_$mul$alu.v:37$40">
    <text x="15" y="-4" class="nodelabel cell_$mul$alu.v:37$40" s:attribute="ref">$mul</text>
    <rect width="30" height="40" s:generic="body" class="cell_$mul$alu.v:37$40"/>
    <g transform="translate(0,10)" s:x="0" s:y="10" s:pid="in0" id="port_$mul$alu.v:37$40~A">
      <text x="-3" y="-4" class="inputPortLabel cell_$mul$alu.v:37$40">A</text>
    </g>
    <g transform="translate(0,30)" s:x="0" s:y="10" s:pid="in0" id="port_$mul$alu.v:37$40~B">
      <text x="-3" y="-4" class="inputPortLabel cell_$mul$alu.v:37$40">B</text>
    </g>
    <g transform="translate(30,10)" s:x="30" s:y="10" s:pid="out0" id="port_$mul$alu.v:37$40~Y">
      <text x="5" y="-4" style="fill:#000; stroke:none" class="cell_$mul$alu.v:37$40">Y</text>
    </g>
  </g>
  <g s:type="not" transform="translate(332.5,23)" s:width="30" s:height="20" id="cell_$not$alu.v:41$44">
    <s:alias val="$_NOT_"/>
    <s:alias val="$not"/>
    <s:alias val="$logic_not"/>
    <path d="M0,0 L0,20 L20,10 Z" class="cell_$not$alu.v:41$44"/>
    <circle cx="23" cy="10" r="3" class="cell_$not$alu.v:41$44"/>
    <g s:x="0" s:y="10" s:pid="A"/>
    <g s:x="25" s:y="10" s:pid="Y"/>
  </g>
  <g s:type="or" transform="translate(322.6666666666667,138)" s:width="30" s:height="25" id="cell_$or$alu.v:39$42">
    <s:alias val="$or"/>
    <s:alias val="$logic_or"/>
    <s:alias val="$_OR_"/>
    <path d="M0,25 L0,25 L15,25 A15 12.5 0 0 0 15,0 L0,0" class="cell_$or$alu.v:39$42"/>
    <path d="M0,0 A30 25 0 0 1 0,25" class="cell_$or$alu.v:39$42"/>
    <g s:x="3" s:y="5" s:pid="A"/>
    <g s:x="3" s:y="20" s:pid="B"/>
    <g s:x="30" s:y="12.5" s:pid="Y"/>
  </g>
  <g s:type="mux" transform="translate(563.5,158.5)" s:width="20" s:height="40" id="cell_$procmux$45">
    <s:alias val="$pmux"/>
    <s:alias val="$mux"/>
    <s:alias val="$_MUX_"/>
    <path d="M0,0 L20,10 L20,30 L0,40 Z" class="cell_$procmux$45"/>
    <g s:x="0" s:y="10" s:pid="A"/>
    <g s:x="0" s:y="30" s:pid="B"/>
    <g s:x="10" s:y="35" s:pid="S"/>
    <g s:x="20" s:y="20" s:pid="Y"/>
  </g>
  <g s:type="not" transform="translate(332.5,466.5)" s:width="30" s:height="20" id="cell_$procmux$46_CMP0">
    <s:alias val="$_NOT_"/>
    <s:alias val="$not"/>
    <s:alias val="$logic_not"/>
    <path d="M0,0 L0,20 L20,10 Z" class="cell_$procmux$46_CMP0"/>
    <circle cx="23" cy="10" r="3" class="cell_$procmux$46_CMP0"/>
    <g s:x="0" s:y="10" s:pid="A"/>
    <g s:x="25" s:y="10" s:pid="Y"/>
  </g>
  <g s:type="eq" transform="translate(324.3333333333333,521.5)" s:width="25" s:height="25" id="cell_$procmux$47_CMP0">
    <s:alias val="$eq"/>
    <circle r="12.5" cx="12.5" cy="12.5" class="cell_$procmux$47_CMP0"/>
    <line x1="7.5" x2="17.5" y1="10" y2="10" class="cell_$procmux$47_CMP0"/>
    <line x1="7.5" x2="17.5" y1="15" y2="15" class="cell_$procmux$47_CMP0"/>
    <g s:x="3" s:y="5" s:pid="A"/>
    <g s:x="3" s:y="20" s:pid="B"/>
    <g s:x="25" s:y="12.5" s:pid="Y"/>
  </g>
  <g s:type="eq" transform="translate(324.3333333333333,581.5)" s:width="25" s:height="25" id="cell_$procmux$48_CMP0">
    <s:alias val="$eq"/>
    <circle r="12.5" cx="12.5" cy="12.5" class="cell_$procmux$48_CMP0"/>
    <line x1="7.5" x2="17.5" y1="10" y2="10" class="cell_$procmux$48_CMP0"/>
    <line x1="7.5" x2="17.5" y1="15" y2="15" class="cell_$procmux$48_CMP0"/>
    <g s:x="3" s:y="5" s:pid="A"/>
    <g s:x="3" s:y="20" s:pid="B"/>
    <g s:x="25" s:y="12.5" s:pid="Y"/>
  </g>
  <g s:type="eq" transform="translate(324.3333333333333,641.5)" s:width="25" s:height="25" id="cell_$procmux$49_CMP0">
    <s:alias val="$eq"/>
    <circle r="12.5" cx="12.5" cy="12.5" class="cell_$procmux$49_CMP0"/>
    <line x1="7.5" x2="17.5" y1="10" y2="10" class="cell_$procmux$49_CMP0"/>
    <line x1="7.5" x2="17.5" y1="15" y2="15" class="cell_$procmux$49_CMP0"/>
    <g s:x="3" s:y="5" s:pid="A"/>
    <g s:x="3" s:y="20" s:pid="B"/>
    <g s:x="25" s:y="12.5" s:pid="Y"/>
  </g>
  <g s:type="eq" transform="translate(324.3333333333333,701.5)" s:width="25" s:height="25" id="cell_$procmux$50_CMP0">
    <s:alias val="$eq"/>
    <circle r="12.5" cx="12.5" cy="12.5" class="cell_$procmux$50_CMP0"/>
    <line x1="7.5" x2="17.5" y1="10" y2="10" class="cell_$procmux$50_CMP0"/>
    <line x1="7.5" x2="17.5" y1="15" y2="15" class="cell_$procmux$50_CMP0"/>
    <g s:x="3" s:y="5" s:pid="A"/>
    <g s:x="3" s:y="20" s:pid="B"/>
    <g s:x="25" s:y="12.5" s:pid="Y"/>
  </g>
  <g s:type="eq" transform="translate(324.3333333333333,761.5)" s:width="25" s:height="25" id="cell_$procmux$51_CMP0">
    <s:alias val="$eq"/>
    <circle r="12.5" cx="12.5" cy="12.5" class="cell_$procmux$51_CMP0"/>
    <line x1="7.5" x2="17.5" y1="10" y2="10" class="cell_$procmux$51_CMP0"/>
    <line x1="7.5" x2="17.5" y1="15" y2="15" class="cell_$procmux$51_CMP0"/>
    <g s:x="3" s:y="5" s:pid="A"/>
    <g s:x="3" s:y="20" s:pid="B"/>
    <g s:x="25" s:y="12.5" s:pid="Y"/>
  </g>
  <g s:type="generic" transform="translate(309,838.5)" s:width="30" s:height="40" id="cell_$procmux$52_ANY">
    <text x="15" y="-4" class="nodelabel cell_$procmux$52_ANY" s:attribute="ref">$reduce_or</text>
    <rect width="30" height="20" s:generic="body" class="cell_$procmux$52_ANY"/>
    <g transform="translate(0,10)" s:x="0" s:y="10" s:pid="in0" id="port_$procmux$52_ANY~A">
      <text x="-3" y="-4" class="inputPortLabel cell_$procmux$52_ANY">A</text>
    </g>
    <g transform="translate(30,10)" s:x="30" s:y="10" s:pid="out0" id="port_$procmux$52_ANY~Y">
      <text x="5" y="-4" style="fill:#000; stroke:none" class="cell_$procmux$52_ANY">Y</text>
    </g>
  </g>
  <g s:type="eq" transform="translate(131,846.5)" s:width="25" s:height="25" id="cell_$procmux$52_CMP0">
    <s:alias val="$eq"/>
    <circle r="12.5" cx="12.5" cy="12.5" class="cell_$procmux$52_CMP0"/>
    <line x1="7.5" x2="17.5" y1="10" y2="10" class="cell_$procmux$52_CMP0"/>
    <line x1="7.5" x2="17.5" y1="15" y2="15" class="cell_$procmux$52_CMP0"/>
    <g s:x="3" s:y="5" s:pid="A"/>
    <g s:x="3" s:y="20" s:pid="B"/>
    <g s:x="25" s:y="12.5" s:pid="Y"/>
  </g>
  <g s:type="eq" transform="translate(131,619)" s:width="25" s:height="25" id="cell_$procmux$52_CMP1">
    <s:alias val="$eq"/>
    <circle r="12.5" cx="12.5" cy="12.5" class="cell_$procmux$52_CMP1"/>
    <line x1="7.5" x2="17.5" y1="10" y2="10" class="cell_$procmux$52_CMP1"/>
    <line x1="7.5" x2="17.5" y1="15" y2="15" class="cell_$procmux$52_CMP1"/>
    <g s:x="3" s:y="5" s:pid="A"/>
    <g s:x="3" s:y="20" s:pid="B"/>
    <g s:x="25" s:y="12.5" s:pid="Y"/>
  </g>
  <g s:type="generic" transform="translate(511,861)" s:width="30" s:height="40" id="cell_$reduce_or$alu.v:21$37">
    <text x="15" y="-4" class="nodelabel cell_$reduce_or$alu.v:21$37" s:attribute="ref">$reduce_or</text>
    <rect width="30" height="20" s:generic="body" class="cell_$reduce_or$alu.v:21$37"/>
    <g transform="translate(0,10)" s:x="0" s:y="10" s:pid="in0" id="port_$reduce_or$alu.v:21$37~A">
      <text x="-3" y="-4" class="inputPortLabel cell_$reduce_or$alu.v:21$37">A</text>
    </g>
    <g transform="translate(30,10)" s:x="30" s:y="10" s:pid="out0" id="port_$reduce_or$alu.v:21$37~Y">
      <text x="5" y="-4" style="fill:#000; stroke:none" class="cell_$reduce_or$alu.v:21$37">Y</text>
    </g>
  </g>
  <g s:type="sub" transform="translate(131,454)" s:width="25" s:height="25" id="cell_$sub$alu.v:20$34">
    <s:alias val="$sub"/>
    <circle r="12.5" cx="12.5" cy="12.5" class="cell_$sub$alu.v:20$34"/>
    <line x1="7.5" x2="17.5" y1="12.5" y2="12.5" class="cell_$sub$alu.v:20$34"/>
    <g s:x="3" s:y="5" s:pid="A"/>
    <g s:x="3" s:y="20" s:pid="B"/>
    <g s:x="25" s:y="12.5" s:pid="Y"/>
  </g>
  <g s:type="mux" transform="translate(201.66666666666666,436.5)" s:width="20" s:height="40" id="cell_$ternary$alu.v:20$36">
    <s:alias val="$pmux"/>
    <s:alias val="$mux"/>
    <s:alias val="$_MUX_"/>
    <path d="M0,0 L20,10 L20,30 L0,40 Z" class="cell_$ternary$alu.v:20$36"/>
    <g s:x="0" s:y="10" s:pid="A"/>
    <g s:x="0" s:y="30" s:pid="B"/>
    <g s:x="10" s:y="35" s:pid="S"/>
    <g s:x="20" s:y="20" s:pid="Y"/>
  </g>
  <g s:type="reduce_xor" transform="translate(321.66666666666663,78)" s:width="33" s:height="25" id="cell_$xor$alu.v:40$43">
    <s:alias val="$xor"/>
    <s:alias val="$reduce_xor"/>
    <s:alias val="$_XOR_"/>
    <path d="M3,0 A30 25 0 0 1 3,25 A30 25 0 0 0 33,12.5 A30 25 0 0 0 3,0" class="cell_$xor$alu.v:40$43"/>
    <path d="M0,0 A30 25 0 0 1 0,25" class="cell_$xor$alu.v:40$43"/>
    <g s:x="3" s:y="5" s:pid="A"/>
    <g s:x="3" s:y="20" s:pid="B"/>
    <g s:x="33" s:y="12.5" s:pid="Y"/>
  </g>
  <g s:type="inputExt" transform="translate(66,193)" s:width="30" s:height="20" id="cell_a_i">
    <text x="15" y="-4" class="nodelabel cell_a_i" s:attribute="ref">a_i</text>
    <s:alias val="$_inputExt_"/>
    <path d="M0,0 L0,20 L15,20 L30,10 L15,0 Z" class="cell_a_i"/>
    <g s:x="28" s:y="10" s:pid="Y"/>
  </g>
  <g s:type="inputExt" transform="translate(66,288.5)" s:width="30" s:height="20" id="cell_b_i">
    <text x="15" y="-4" class="nodelabel cell_b_i" s:attribute="ref">b_i</text>
    <s:alias val="$_inputExt_"/>
    <path d="M0,0 L0,20 L15,20 L30,10 L15,0 Z" class="cell_b_i"/>
    <g s:x="28" s:y="10" s:pid="Y"/>
  </g>
  <g s:type="inputExt" transform="translate(66,564)" s:width="30" s:height="20" id="cell_op">
    <text x="15" y="-4" class="nodelabel cell_op" s:attribute="ref">op</text>
    <s:alias val="$_inputExt_"/>
    <path d="M0,0 L0,20 L15,20 L30,10 L15,0 Z" class="cell_op"/>
    <g s:x="28" s:y="10" s:pid="Y"/>
  </g>
  <g s:type="outputExt" transform="translate(678,168.5)" s:width="30" s:height="20" id="cell_r_o">
    <text x="15" y="-4" class="nodelabel cell_r_o" s:attribute="ref">r_o</text>
    <s:alias val="$_outputExt_"/>
    <path d="M30,0 L30,20 L15,20 L0,10 L15,0 Z" class="cell_r_o"/>
    <g s:x="0" s:y="10" s:pid="A"/>
  </g>
  <g s:type="outputExt" transform="translate(12,22)" s:width="30" s:height="20" id="cell_flags_o">
    <text x="15" y="-4" class="nodelabel cell_flags_o" s:attribute="ref">flags_o</text>
    <s:alias val="$_outputExt_"/>
    <path d="M30,0 L30,20 L15,20 L0,10 L15,0 Z" class="cell_flags_o"/>
    <g s:x="0" s:y="10" s:pid="A"/>
  </g>
  <g s:type="constant" transform="translate(196,330.5)" s:width="30" s:height="20" id="cell_111">
    <text x="15" y="-4" class="nodelabel cell_111" s:attribute="ref">111</text>
    <s:alias val="$_constant_"/>
    <rect width="30" height="20" class="cell_111"/>
    <g s:x="30" s:y="10" s:pid="Y"/>
  </g>
  <g s:type="constant" transform="translate(196,381.5)" s:width="30" s:height="20" id="cell_110">
    <text x="15" y="-4" class="nodelabel cell_110" s:attribute="ref">110</text>
    <s:alias val="$_constant_"/>
    <rect width="30" height="20" class="cell_110"/>
    <g s:x="30" s:y="10" s:pid="Y"/>
  </g>
  <g s:type="constant" transform="translate(196,651.5)" s:width="30" s:height="20" id="cell_101">
    <text x="15" y="-4" class="nodelabel cell_101" s:attribute="ref">101</text>
    <s:alias val="$_constant_"/>
    <rect width="30" height="20" class="cell_101"/>
    <g s:x="30" s:y="10" s:pid="Y"/>
  </g>
  <g s:type="constant" transform="translate(196,711.5)" s:width="30" s:height="20" id="cell_100">
    <text x="15" y="-4" class="nodelabel cell_100" s:attribute="ref">100</text>
    <s:alias val="$_constant_"/>
    <rect width="30" height="20" class="cell_100"/>
    <g s:x="30" s:y="10" s:pid="Y"/>
  </g>
  <g s:type="constant" transform="translate(196,771.5)" s:width="30" s:height="20" id="cell_011">
    <text x="15" y="-4" class="nodelabel cell_011" s:attribute="ref">011</text>
    <s:alias val="$_constant_"/>
    <rect width="30" height="20" class="cell_011"/>
    <g s:x="30" s:y="10" s:pid="Y"/>
  </g>
  <g s:type="constant" transform="translate(66,856.5)" s:width="30" s:height="20" id="cell_001">
    <text x="15" y="-4" class="nodelabel cell_001" s:attribute="ref">001</text>
    <s:alias val="$_constant_"/>
    <rect width="30" height="20" class="cell_001"/>
    <g s:x="30" s:y="10" s:pid="Y"/>
  </g>
  <g s:type="constant" transform="translate(66,629)" s:width="30" s:height="20" id="cell_010">
    <text x="15" y="-4" class="nodelabel cell_010" s:attribute="ref">010</text>
    <s:alias val="$_constant_"/>
    <rect width="30" height="20" class="cell_010"/>
    <g s:x="30" s:y="10" s:pid="Y"/>
  </g>
  <g s:type="join" transform="translate(449,168)" s:width="4" s:height="40" id="cell_$join$,2,3,4,5,6,7,8,9,59,60,61,62,63,64,65,66,75,76,77,78,79,80,81,82,67,68,69,70,71,72,73,74,42,43,44,45,46,47,48,49,51,52,53,54,55,56,57,58,83,84,85,86,87,88,89,31,">
    <rect width="5" height="140" class="splitjoinBody" s:generic="body"/>
    <s:alias val="$_join_"/>
    <g s:x="5" s:y="20" s:pid="out"/>
    <g transform="translate(0,10)" s:x="0" s:y="10" s:pid="in0">
      <text x="-3" y="-4" class="inputPortLabel">0:7</text>
    </g>
    <g transform="translate(0,30)" s:x="0" s:y="10" s:pid="in0">
      <text x="-3" y="-4" class="inputPortLabel">8:15</text>
    </g>
    <g transform="translate(0,50)" s:x="0" s:y="10" s:pid="in0">
      <text x="-3" y="-4" class="inputPortLabel">16:23</text>
    </g>
    <g transform="translate(0,70)" s:x="0" s:y="10" s:pid="in0">
      <text x="-3" y="-4" class="inputPortLabel">24:31</text>
    </g>
    <g transform="translate(0,90)" s:x="0" s:y="10" s:pid="in0">
      <text x="-3" y="-4" class="inputPortLabel">32:39</text>
    </g>
    <g transform="translate(0,110)" s:x="0" s:y="10" s:pid="in0">
      <text x="-3" y="-4" class="inputPortLabel">40:47</text>
    </g>
    <g transform="translate(0,130)" s:x="0" s:y="10" s:pid="in0">
      <text x="-3" y="-4" class="inputPortLabel">48:55</text>
    </g>
  </g>
  <g s:type="join" transform="translate(451.6666666666667,663.5)" s:width="4" s:height="40" id="cell_$join$,90,91,92,93,94,95,96,">
    <rect width="5" height="140" class="splitjoinBody" s:generic="body"/>
    <s:alias val="$_join_"/>
    <g s:x="5" s:y="20" s:pid="out"/>
    <g transform="translate(0,10)" s:x="0" s:y="10" s:pid="in0">
      <text x="-3" y="-4" class="inputPortLabel">0</text>
    </g>
    <g transform="translate(0,30)" s:x="0" s:y="10" s:pid="in0">
      <text x="-3" y="-4" class="inputPortLabel">1</text>
    </g>
    <g transform="translate(0,50)" s:x="0" s:y="10" s:pid="in0">
      <text x="-3" y="-4" class="inputPortLabel">2</text>
    </g>
    <g transform="translate(0,70)" s:x="0" s:y="10" s:pid="in0">
      <text x="-3" y="-4" class="inputPortLabel">3</text>
    </g>
    <g transform="translate(0,90)" s:x="0" s:y="10" s:pid="in0">
      <text x="-3" y="-4" class="inputPortLabel">4</text>
    </g>
    <g transform="translate(0,110)" s:x="0" s:y="10" s:pid="in0">
      <text x="-3" y="-4" class="inputPortLabel">5</text>
    </g>
    <g transform="translate(0,130)" s:x="0" s:y="10" s:pid="in0">
      <text x="-3" y="-4" class="inputPortLabel">6</text>
    </g>
  </g>
  <g s:type="join" transform="translate(207,828.5)" s:width="4" s:height="40" id="cell_$join$,97,98,">
    <rect width="5" height="40" class="splitjoinBody" s:generic="body"/>
    <s:alias val="$_join_"/>
    <g s:x="5" s:y="20" s:pid="out"/>
    <g transform="translate(0,10)" s:x="0" s:y="10" s:pid="in0">
      <text x="-3" y="-4" class="inputPortLabel">0</text>
    </g>
    <g transform="translate(0,30)" s:x="0" s:y="10" s:pid="in0">
      <text x="-3" y="-4" class="inputPortLabel">1</text>
    </g>
  </g>
  <g s:type="split" transform="translate(328,423.5)" s:width="5" s:height="40" id="cell_$split$,83,84,85,86,87,88,89,31,99,">
    <rect width="5" height="20" class="splitjoinBody" s:generic="body"/>
    <s:alias val="$_split_"/>
    <g s:x="0" s:y="20" s:pid="in"/>
    <g transform="translate(4,10)" s:x="4" s:y="10" s:pid="out0">
      <text x="5" y="-4">0:7</text>
    </g>
  </g>
  <line x1="94" x2="116" y1="203" y2="203" class="net_2,3,4,5,6,7,8,9"/>
  <line x1="116" x2="116" y1="203" y2="399" class="net_2,3,4,5,6,7,8,9"/>
  <circle cx="116" cy="203" r="2" style="fill:#000" class="net_2,3,4,5,6,7,8,9"/>
  <circle cx="116" cy="399" r="2" style="fill:#000" class="net_2,3,4,5,6,7,8,9"/>
  <line x1="116" x2="134" y1="399" y2="399" class="net_2,3,4,5,6,7,8,9"/>
  <line x1="94" x2="322.6666666666667" y1="203" y2="203" class="net_2,3,4,5,6,7,8,9"/>
  <line x1="94" x2="116" y1="203" y2="203" class="net_2,3,4,5,6,7,8,9"/>
  <line x1="116" x2="116" y1="203" y2="278.5" class="net_2,3,4,5,6,7,8,9"/>
  <circle cx="116" cy="278.5" r="2" style="fill:#000" class="net_2,3,4,5,6,7,8,9"/>
  <line x1="116" x2="303" y1="278.5" y2="278.5" class="net_2,3,4,5,6,7,8,9"/>
  <line x1="94" x2="116" y1="203" y2="203" class="net_2,3,4,5,6,7,8,9"/>
  <line x1="116" x2="116" y1="203" y2="33" class="net_2,3,4,5,6,7,8,9"/>
  <line x1="116" x2="332.5" y1="33" y2="33" class="net_2,3,4,5,6,7,8,9"/>
  <line x1="94" x2="116" y1="203" y2="203" class="net_2,3,4,5,6,7,8,9"/>
  <line x1="116" x2="116" y1="203" y2="143" class="net_2,3,4,5,6,7,8,9"/>
  <circle cx="116" cy="143" r="2" style="fill:#000" class="net_2,3,4,5,6,7,8,9"/>
  <line x1="116" x2="325.6666666666667" y1="143" y2="143" class="net_2,3,4,5,6,7,8,9"/>
  <line x1="94" x2="116" y1="203" y2="203" class="net_2,3,4,5,6,7,8,9"/>
  <line x1="116" x2="116" y1="203" y2="459" class="net_2,3,4,5,6,7,8,9"/>
  <line x1="116" x2="134" y1="459" y2="459" class="net_2,3,4,5,6,7,8,9"/>
  <line x1="94" x2="116" y1="203" y2="203" class="net_2,3,4,5,6,7,8,9"/>
  <line x1="116" x2="116" y1="203" y2="33" class="net_2,3,4,5,6,7,8,9"/>
  <line x1="116" x2="236" y1="33" y2="33" class="net_2,3,4,5,6,7,8,9"/>
  <line x1="236" x2="236" y1="33" y2="83" class="net_2,3,4,5,6,7,8,9"/>
  <line x1="236" x2="324.66666666666663" y1="83" y2="83" class="net_2,3,4,5,6,7,8,9"/>
  <line x1="94" x2="116" y1="203" y2="203" class="net_2,3,4,5,6,7,8,9"/>
  <line x1="116" x2="116" y1="203" y2="33" class="net_2,3,4,5,6,7,8,9"/>
  <line x1="116" x2="236" y1="33" y2="33" class="net_2,3,4,5,6,7,8,9"/>
  <line x1="236" x2="236" y1="33" y2="12" class="net_2,3,4,5,6,7,8,9"/>
  <line x1="236" x2="449.5" y1="12" y2="12" class="net_2,3,4,5,6,7,8,9"/>
  <circle cx="236" cy="33" r="2" style="fill:#000" class="net_2,3,4,5,6,7,8,9"/>
  <line x1="449.5" x2="449.5" y1="12" y2="178" class="net_2,3,4,5,6,7,8,9"/>
  <line x1="94" x2="106" y1="298.5" y2="298.5" class="net_10,11,12,13,14,15,16,17"/>
  <line x1="106" x2="106" y1="298.5" y2="414" class="net_10,11,12,13,14,15,16,17"/>
  <circle cx="106" cy="298.5" r="2" style="fill:#000" class="net_10,11,12,13,14,15,16,17"/>
  <circle cx="106" cy="414" r="2" style="fill:#000" class="net_10,11,12,13,14,15,16,17"/>
  <line x1="106" x2="134" y1="414" y2="414" class="net_10,11,12,13,14,15,16,17"/>
  <line x1="94" x2="106" y1="298.5" y2="298.5" class="net_10,11,12,13,14,15,16,17"/>
  <line x1="106" x2="106" y1="298.5" y2="218" class="net_10,11,12,13,14,15,16,17"/>
  <circle cx="106" cy="218" r="2" style="fill:#000" class="net_10,11,12,13,14,15,16,17"/>
  <line x1="106" x2="322.6666666666667" y1="218" y2="218" class="net_10,11,12,13,14,15,16,17"/>
  <line x1="94" x2="303" y1="298.5" y2="298.5" class="net_10,11,12,13,14,15,16,17"/>
  <line x1="94" x2="106" y1="298.5" y2="298.5" class="net_10,11,12,13,14,15,16,17"/>
  <line x1="106" x2="106" y1="298.5" y2="158" class="net_10,11,12,13,14,15,16,17"/>
  <circle cx="106" cy="158" r="2" style="fill:#000" class="net_10,11,12,13,14,15,16,17"/>
  <line x1="106" x2="325.6666666666667" y1="158" y2="158" class="net_10,11,12,13,14,15,16,17"/>
  <line x1="94" x2="106" y1="298.5" y2="298.5" class="net_10,11,12,13,14,15,16,17"/>
  <line x1="106" x2="106" y1="298.5" y2="474" class="net_10,11,12,13,14,15,16,17"/>
  <line x1="106" x2="134" y1="474" y2="474" class="net_10,11,12,13,14,15,16,17"/>
  <line x1="94" x2="106" y1="298.5" y2="298.5" class="net_10,11,12,13,14,15,16,17"/>
  <line x1="106" x2="106" y1="298.5" y2="98" class="net_10,11,12,13,14,15,16,17"/>
  <line x1="106" x2="324.66666666666663" y1="98" y2="98" class="net_10,11,12,13,14,15,16,17"/>
  <line x1="542" x2="678" y1="871.5" y2="871.5" class="net_50"/>
  <line x1="455" x2="563.5" y1="188.5" y2="188.5" class="net_2,3,4,5,6,7,8,9,59,60,61,62,63,64,65,66,75,76,77,78,79,80,81,82,67,68,69,70,71,72,73,74,42,43,44,45,46,47,48,49,51,52,53,54,55,56,57,58,83,84,85,86,87,88,89,31"/>
  <line x1="457.6666666666667" x2="573.5" y1="684" y2="684" class="net_90,91,92,93,94,95,96"/>
  <line x1="573.5" x2="573.5" y1="684" y2="193.5" class="net_90,91,92,93,94,95,96"/>
  <line x1="94" x2="176" y1="574" y2="574" class="net_18,19,20"/>
  <line x1="176" x2="176" y1="574" y2="309.5" class="net_18,19,20"/>
  <line x1="176" x2="286" y1="309.5" y2="309.5" class="net_18,19,20"/>
  <line x1="286" x2="286" y1="309.5" y2="476.5" class="net_18,19,20"/>
  <circle cx="176" cy="574" r="2" style="fill:#000" class="net_18,19,20"/>
  <circle cx="286" cy="476.5" r="2" style="fill:#000" class="net_18,19,20"/>
  <line x1="286" x2="332.5" y1="476.5" y2="476.5" class="net_18,19,20"/>
  <line x1="94" x2="176" y1="574" y2="574" class="net_18,19,20"/>
  <line x1="176" x2="176" y1="574" y2="309.5" class="net_18,19,20"/>
  <line x1="176" x2="286" y1="309.5" y2="309.5" class="net_18,19,20"/>
  <line x1="286" x2="286" y1="309.5" y2="526.5" class="net_18,19,20"/>
  <line x1="286" x2="327.3333333333333" y1="526.5" y2="526.5" class="net_18,19,20"/>
  <line x1="94" x2="176" y1="574" y2="574" class="net_18,19,20"/>
  <line x1="176" x2="176" y1="574" y2="360.5" class="net_18,19,20"/>
  <line x1="176" x2="266" y1="360.5" y2="360.5" class="net_18,19,20"/>
  <line x1="266" x2="266" y1="360.5" y2="586.5" class="net_18,19,20"/>
  <circle cx="176" cy="360.5" r="2" style="fill:#000" class="net_18,19,20"/>
  <line x1="266" x2="327.3333333333333" y1="586.5" y2="586.5" class="net_18,19,20"/>
  <line x1="94" x2="246" y1="574" y2="574" class="net_18,19,20"/>
  <line x1="246" x2="246" y1="574" y2="646.5" class="net_18,19,20"/>
  <line x1="246" x2="327.3333333333333" y1="646.5" y2="646.5" class="net_18,19,20"/>
  <line x1="94" x2="176" y1="574" y2="574" class="net_18,19,20"/>
  <line x1="176" x2="176" y1="574" y2="690.5" class="net_18,19,20"/>
  <line x1="176" x2="246" y1="690.5" y2="690.5" class="net_18,19,20"/>
  <line x1="246" x2="246" y1="690.5" y2="706.5" class="net_18,19,20"/>
  <circle cx="176" cy="690.5" r="2" style="fill:#000" class="net_18,19,20"/>
  <line x1="246" x2="327.3333333333333" y1="706.5" y2="706.5" class="net_18,19,20"/>
  <line x1="94" x2="176" y1="574" y2="574" class="net_18,19,20"/>
  <line x1="176" x2="176" y1="574" y2="750.5" class="net_18,19,20"/>
  <line x1="176" x2="246" y1="750.5" y2="750.5" class="net_18,19,20"/>
  <line x1="246" x2="246" y1="750.5" y2="766.5" class="net_18,19,20"/>
  <line x1="246" x2="327.3333333333333" y1="766.5" y2="766.5" class="net_18,19,20"/>
  <line x1="94" x2="106" y1="574" y2="574" class="net_18,19,20"/>
  <line x1="106" x2="106" y1="574" y2="851.5" class="net_18,19,20"/>
  <circle cx="106" cy="574" r="2" style="fill:#000" class="net_18,19,20"/>
  <line x1="106" x2="134" y1="851.5" y2="851.5" class="net_18,19,20"/>
  <line x1="94" x2="106" y1="574" y2="574" class="net_18,19,20"/>
  <line x1="106" x2="106" y1="574" y2="624" class="net_18,19,20"/>
  <circle cx="106" cy="624" r="2" style="fill:#000" class="net_18,19,20"/>
  <line x1="106" x2="134" y1="624" y2="624" class="net_18,19,20"/>
  <line x1="226" x2="276" y1="340.5" y2="340.5" class="net_109,110,111"/>
  <line x1="276" x2="276" y1="340.5" y2="541.5" class="net_109,110,111"/>
  <line x1="276" x2="327.3333333333333" y1="541.5" y2="541.5" class="net_109,110,111"/>
  <line x1="226" x2="256" y1="391.5" y2="391.5" class="net_112,113,114"/>
  <line x1="256" x2="256" y1="391.5" y2="601.5" class="net_112,113,114"/>
  <line x1="256" x2="327.3333333333333" y1="601.5" y2="601.5" class="net_112,113,114"/>
  <line x1="226" x2="327.3333333333333" y1="661.5" y2="661.5" class="net_115,116,117"/>
  <line x1="226" x2="327.3333333333333" y1="721.5" y2="721.5" class="net_118,119,120"/>
  <line x1="226" x2="327.3333333333333" y1="781.5" y2="781.5" class="net_121,122,123"/>
  <line x1="213" x2="309" y1="849" y2="849" class="net_97,98"/>
  <line x1="96" x2="134" y1="866.5" y2="866.5" class="net_124,125,126"/>
  <line x1="96" x2="134" y1="639" y2="639" class="net_127,128,129"/>
  <line x1="221.66666666666666" x2="236" y1="456.5" y2="456.5" class="net_83,84,85,86,87,88,89,31,99"/>
  <line x1="236" x2="236" y1="456.5" y2="871.5" class="net_83,84,85,86,87,88,89,31,99"/>
  <circle cx="236" cy="456.5" r="2" style="fill:#000" class="net_83,84,85,86,87,88,89,31,99"/>
  <line x1="236" x2="511" y1="871.5" y2="871.5" class="net_83,84,85,86,87,88,89,31,99"/>
  <line x1="221.66666666666666" x2="328.5" y1="456.5" y2="456.5" class="net_83,84,85,86,87,88,89,31,99"/>
  <line x1="328.5" x2="328.5" y1="456.5" y2="444.5" class="net_83,84,85,86,87,88,89,31,99"/>
  <line x1="156" x2="186" y1="406.5" y2="406.5" class="net_33,34,35,36,37,38,39,40,41"/>
  <line x1="186" x2="186" y1="406.5" y2="446.5" class="net_33,34,35,36,37,38,39,40,41"/>
  <line x1="186" x2="201.66666666666666" y1="446.5" y2="446.5" class="net_33,34,35,36,37,38,39,40,41"/>
  <line x1="156" x2="201.66666666666666" y1="466.5" y2="466.5" class="net_100,101,102,103,104,105,106,107,108"/>
  <line x1="156" x2="211.66666666666666" y1="631.5" y2="631.5" class="net_97"/>
  <line x1="211.66666666666666" x2="211.66666666666666" y1="631.5" y2="471.5" class="net_97"/>
  <line x1="156" x2="166" y1="631.5" y2="631.5" class="net_97"/>
  <line x1="166" x2="166" y1="631.5" y2="839" class="net_97"/>
  <circle cx="166" cy="631.5" r="2" style="fill:#000" class="net_97"/>
  <line x1="166" x2="207" y1="839" y2="839" class="net_97"/>
  <line x1="583.5" x2="678" y1="178.5" y2="178.5" class="net_21,22,23,24,25,26,27,28"/>
  <line x1="357.5" x2="439" y1="33" y2="33" class="net_59,60,61,62,63,64,65,66"/>
  <line x1="439" x2="439" y1="33" y2="198.5" class="net_59,60,61,62,63,64,65,66"/>
  <line x1="439" x2="449" y1="198.5" y2="198.5" class="net_59,60,61,62,63,64,65,66"/>
  <line x1="354.66666666666663" x2="429" y1="90.5" y2="90.5" class="net_75,76,77,78,79,80,81,82"/>
  <line x1="429" x2="429" y1="90.5" y2="218.5" class="net_75,76,77,78,79,80,81,82"/>
  <line x1="429" x2="449" y1="218.5" y2="218.5" class="net_75,76,77,78,79,80,81,82"/>
  <line x1="352.6666666666667" x2="419" y1="150.5" y2="150.5" class="net_67,68,69,70,71,72,73,74"/>
  <line x1="419" x2="419" y1="150.5" y2="238.5" class="net_67,68,69,70,71,72,73,74"/>
  <line x1="419" x2="449" y1="238.5" y2="238.5" class="net_67,68,69,70,71,72,73,74"/>
  <line x1="352.6666666666667" x2="409" y1="210.5" y2="210.5" class="net_42,43,44,45,46,47,48,49"/>
  <line x1="409" x2="409" y1="210.5" y2="258.5" class="net_42,43,44,45,46,47,48,49"/>
  <line x1="409" x2="449" y1="258.5" y2="258.5" class="net_42,43,44,45,46,47,48,49"/>
  <line x1="334" x2="449" y1="278.5" y2="278.5" class="net_51,52,53,54,55,56,57,58"/>
  <line x1="333" x2="449.5" y1="434" y2="434" class="net_83,84,85,86,87,88,89,31"/>
  <line x1="449.5" x2="449.5" y1="434" y2="299" class="net_83,84,85,86,87,88,89,31"/>
  <line x1="357.5" x2="452.1666666666667" y1="476.5" y2="476.5" class="net_90"/>
  <line x1="452.1666666666667" x2="452.1666666666667" y1="476.5" y2="673.5" class="net_90"/>
  <line x1="349.3333333333333" x2="439" y1="534" y2="534" class="net_91"/>
  <line x1="439" x2="439" y1="534" y2="694" class="net_91"/>
  <line x1="439" x2="451.6666666666667" y1="694" y2="694" class="net_91"/>
  <line x1="349.3333333333333" x2="429" y1="594" y2="594" class="net_92"/>
  <line x1="429" x2="429" y1="594" y2="714" class="net_92"/>
  <line x1="429" x2="451.6666666666667" y1="714" y2="714" class="net_92"/>
  <line x1="349.3333333333333" x2="419" y1="654" y2="654" class="net_93"/>
  <line x1="419" x2="419" y1="654" y2="734" class="net_93"/>
  <line x1="419" x2="451.6666666666667" y1="734" y2="734" class="net_93"/>
  <line x1="349.3333333333333" x2="409" y1="714" y2="714" class="net_94"/>
  <line x1="409" x2="409" y1="714" y2="754" class="net_94"/>
  <line x1="409" x2="451.6666666666667" y1="754" y2="754" class="net_94"/>
  <line x1="349.3333333333333" x2="451.6666666666667" y1="774" y2="774" class="net_95"/>
  <line x1="340" x2="452.1666666666667" y1="849" y2="849" class="net_96"/>
  <line x1="452.1666666666667" x2="452.1666666666667" y1="849" y2="794.5" class="net_96"/>
  <line x1="156" x2="207" y1="859" y2="859" class="net_98"/>
</svg>
