<svg xmlns="http://www.w3.org/2000/svg" xmlns:xlink="http://www.w3.org/1999/xlink" xmlns:s="https://github.com/nturley/netlistsvg" width="987" height="514">
  <style>svg {
    stroke:#000;
    fill:none;
  }
  text {
    fill:#000;
    stroke:none;
    font-size:10px;
    font-weight: bold;
    font-family: "Courier New", monospace;
  }
  .nodelabel {
    text-anchor: middle;
  }
  .inputPortLabel {
    text-anchor: end;
  }
  .splitjoinBody {
    fill:#000;
  }</style>
  <g s:type="or" transform="translate(631,341)" s:width="30" s:height="25" id="cell_$logic_or$core.v:62$3">
    <s:alias val="$or"/>
    <s:alias val="$logic_or"/>
    <s:alias val="$_OR_"/>
    <path d="M0,25 L0,25 L15,25 A15 12.5 0 0 0 15,0 L0,0" class="cell_$logic_or$core.v:62$3"/>
    <path d="M0,0 A30 25 0 0 1 0,25" class="cell_$logic_or$core.v:62$3"/>
    <g s:x="3" s:y="5" s:pid="A"/>
    <g s:x="3" s:y="20" s:pid="B"/>
    <g s:x="30" s:y="12.5" s:pid="Y"/>
  </g>
  <g s:type="mux" transform="translate(634.3333333333334,64.5)" s:width="20" s:height="40" id="cell_$ternary$core.v:84$4">
    <s:alias val="$pmux"/>
    <s:alias val="$mux"/>
    <s:alias val="$_MUX_"/>
    <path d="M0,0 L20,10 L20,30 L0,40 Z" class="cell_$ternary$core.v:84$4"/>
    <g s:x="0" s:y="10" s:pid="A"/>
    <g s:x="0" s:y="30" s:pid="B"/>
    <g s:x="10" s:y="35" s:pid="S"/>
    <g s:x="20" s:y="20" s:pid="Y"/>
  </g>
  <g s:type="generic" transform="translate(746,74)" s:width="30" s:height="40" id="cell_alu0">
    <text x="15" y="-4" class="nodelabel cell_alu0" s:attribute="ref">alu</text>
    <rect width="30" height="60" s:generic="body" class="cell_alu0"/>
    <g transform="translate(0,10)" s:x="0" s:y="10" s:pid="in0" id="port_alu0~a_i">
      <text x="-3" y="-4" class="inputPortLabel cell_alu0">a_i</text>
    </g>
    <g transform="translate(0,30)" s:x="0" s:y="10" s:pid="in0" id="port_alu0~b_i">
      <text x="-3" y="-4" class="inputPortLabel cell_alu0">b_i</text>
    </g>
    <g transform="translate(0,50)" s:x="0" s:y="10" s:pid="in0" id="port_alu0~op">
      <text x="-3" y="-4" class="inputPortLabel cell_alu0">op</text>
    </g>
    <g transform="translate(30,10)" s:x="30" s:y="10" s:pid="out0" id="port_alu0~flags_o">
      <text x="5" y="-4" style="fill:#000; stroke:none" class="cell_alu0">flags_o</text>
    </g>
    <g transform="translate(30,30)" s:x="30" s:y="10" s:pid="out0" id="port_alu0~r_o">
      <text x="5" y="-4" style="fill:#000; stroke:none" class="cell_alu0">r_o</text>
    </g>
  </g>
  <g s:type="generic" transform="translate(307,279.5)" s:width="30" s:height="40" id="cell_dec0">
    <text x="15" y="-4" class="nodelabel cell_dec0" s:attribute="ref">dec</text>
    <rect width="30" height="120" s:generic="body" class="cell_dec0"/>
    <g transform="translate(0,10)" s:x="0" s:y="10" s:pid="in0" id="port_dec0~ext_int_i">
      <text x="-3" y="-4" class="inputPortLabel cell_dec0">ext_int_i</text>
    </g>
    <g transform="translate(0,30)" s:x="0" s:y="10" s:pid="in0" id="port_dec0~flags_alu_i">
      <text x="-3" y="-4" class="inputPortLabel cell_dec0">flags_alu_i</text>
    </g>
    <g transform="translate(0,50)" s:x="0" s:y="10" s:pid="in0" id="port_dec0~op_code_i">
      <text x="-3" y="-4" class="inputPortLabel cell_dec0">op_code_i</text>
    </g>
    <g transform="translate(30,10)" s:x="30" s:y="10" s:pid="out0" id="port_dec0~a_imm_alu_o">
      <text x="5" y="-4" style="fill:#000; stroke:none" class="cell_dec0">a_imm_alu_o</text>
    </g>
    <g transform="translate(30,30)" s:x="30" s:y="10" s:pid="out0" id="port_dec0~func_alu_o">
      <text x="5" y="-4" style="fill:#000; stroke:none" class="cell_dec0">func_alu_o</text>
    </g>
    <g transform="translate(30,50)" s:x="30" s:y="10" s:pid="out0" id="port_dec0~halt_core_o">
      <text x="5" y="-4" style="fill:#000; stroke:none" class="cell_dec0">halt_core_o</text>
    </g>
    <g transform="translate(30,70)" s:x="30" s:y="10" s:pid="out0" id="port_dec0~mode_pc_o">
      <text x="5" y="-4" style="fill:#000; stroke:none" class="cell_dec0">mode_pc_o</text>
    </g>
    <g transform="translate(30,90)" s:x="30" s:y="10" s:pid="out0" id="port_dec0~wfi_core_o">
      <text x="5" y="-4" style="fill:#000; stroke:none" class="cell_dec0">wfi_core_o</text>
    </g>
    <g transform="translate(30,110)" s:x="30" s:y="10" s:pid="out0" id="port_dec0~wr_en_rf_o">
      <text x="5" y="-4" style="fill:#000; stroke:none" class="cell_dec0">wr_en_rf_o</text>
    </g>
  </g>
  <g s:type="generic" transform="translate(132,459)" s:width="30" s:height="40" id="cell_ed0">
    <text x="15" y="-4" class="nodelabel cell_ed0" s:attribute="ref">edge_detect</text>
    <rect width="30" height="40" s:generic="body" class="cell_ed0"/>
    <g transform="translate(0,10)" s:x="0" s:y="10" s:pid="in0" id="port_ed0~clk_i">
      <text x="-3" y="-4" class="inputPortLabel cell_ed0">clk_i</text>
    </g>
    <g transform="translate(0,30)" s:x="0" s:y="10" s:pid="in0" id="port_ed0~sig_i">
      <text x="-3" y="-4" class="inputPortLabel cell_ed0">sig_i</text>
    </g>
    <g transform="translate(30,10)" s:x="30" s:y="10" s:pid="out0" id="port_ed0~edge_o">
      <text x="5" y="-4" style="fill:#000; stroke:none" class="cell_ed0">edge_o</text>
    </g>
  </g>
  <g s:type="generic" transform="translate(752,217)" s:width="30" s:height="40" id="cell_pc0">
    <text x="15" y="-4" class="nodelabel cell_pc0" s:attribute="ref">pc</text>
    <rect width="30" height="100" s:generic="body" class="cell_pc0"/>
    <g transform="translate(0,10)" s:x="0" s:y="10" s:pid="in0" id="port_pc0~clk_i">
      <text x="-3" y="-4" class="inputPortLabel cell_pc0">clk_i</text>
    </g>
    <g transform="translate(0,30)" s:x="0" s:y="10" s:pid="in0" id="port_pc0~data_i">
      <text x="-3" y="-4" class="inputPortLabel cell_pc0">data_i</text>
    </g>
    <g transform="translate(0,50)" s:x="0" s:y="10" s:pid="in0" id="port_pc0~halt_i">
      <text x="-3" y="-4" class="inputPortLabel cell_pc0">halt_i</text>
    </g>
    <g transform="translate(0,70)" s:x="0" s:y="10" s:pid="in0" id="port_pc0~mode_i">
      <text x="-3" y="-4" class="inputPortLabel cell_pc0">mode_i</text>
    </g>
    <g transform="translate(0,90)" s:x="0" s:y="10" s:pid="in0" id="port_pc0~n_rst_i">
      <text x="-3" y="-4" class="inputPortLabel cell_pc0">n_rst_i</text>
    </g>
    <g transform="translate(30,10)" s:x="30" s:y="10" s:pid="out0" id="port_pc0~addr_o">
      <text x="5" y="-4" style="fill:#000; stroke:none" class="cell_pc0">addr_o</text>
    </g>
  </g>
  <g s:type="generic" transform="translate(506,64)" s:width="30" s:height="40" id="cell_rf0">
    <text x="15" y="-4" class="nodelabel cell_rf0" s:attribute="ref">rf</text>
    <rect width="30" height="120" s:generic="body" class="cell_rf0"/>
    <g transform="translate(0,10)" s:x="0" s:y="10" s:pid="in0" id="port_rf0~clk_i">
      <text x="-3" y="-4" class="inputPortLabel cell_rf0">clk_i</text>
    </g>
    <g transform="translate(0,30)" s:x="0" s:y="10" s:pid="in0" id="port_rf0~ext_data_i">
      <text x="-3" y="-4" class="inputPortLabel cell_rf0">ext_data_i</text>
    </g>
    <g transform="translate(0,50)" s:x="0" s:y="10" s:pid="in0" id="port_rf0~rd_addr_i">
      <text x="-3" y="-4" class="inputPortLabel cell_rf0">rd_addr_i</text>
    </g>
    <g transform="translate(0,70)" s:x="0" s:y="10" s:pid="in0" id="port_rf0~rs_addr_i">
      <text x="-3" y="-4" class="inputPortLabel cell_rf0">rs_addr_i</text>
    </g>
    <g transform="translate(0,90)" s:x="0" s:y="10" s:pid="in0" id="port_rf0~wd_data_i">
      <text x="-3" y="-4" class="inputPortLabel cell_rf0">wd_data_i</text>
    </g>
    <g transform="translate(0,110)" s:x="0" s:y="10" s:pid="in0" id="port_rf0~wr_en_i">
      <text x="-3" y="-4" class="inputPortLabel cell_rf0">wr_en_i</text>
    </g>
    <g transform="translate(30,10)" s:x="30" s:y="10" s:pid="out0" id="port_rf0~rd_data_o">
      <text x="5" y="-4" style="fill:#000; stroke:none" class="cell_rf0">rd_data_o</text>
    </g>
    <g transform="translate(30,30)" s:x="30" s:y="10" s:pid="out0" id="port_rf0~rs_data_o">
      <text x="5" y="-4" style="fill:#000; stroke:none" class="cell_rf0">rs_data_o</text>
    </g>
  </g>
  <g s:type="generic" transform="translate(897,217)" s:width="30" s:height="40" id="cell_rom0">
    <text x="15" y="-4" class="nodelabel cell_rom0" s:attribute="ref">rom</text>
    <rect width="30" height="40" s:generic="body" class="cell_rom0"/>
    <g transform="translate(0,10)" s:x="0" s:y="10" s:pid="in0" id="port_rom0~addr_i">
      <text x="-3" y="-4" class="inputPortLabel cell_rom0">addr_i</text>
    </g>
    <g transform="translate(0,30)" s:x="0" s:y="10" s:pid="in0" id="port_rom0~clk_i">
      <text x="-3" y="-4" class="inputPortLabel cell_rom0">clk_i</text>
    </g>
    <g transform="translate(30,10)" s:x="30" s:y="10" s:pid="out0" id="port_rom0~data_o">
      <text x="5" y="-4" style="fill:#000; stroke:none" class="cell_rom0">data_o</text>
    </g>
  </g>
  <g s:type="inputExt" transform="translate(12,22)" s:width="30" s:height="20" id="cell_clk_i">
    <text x="15" y="-4" class="nodelabel cell_clk_i" s:attribute="ref">clk_i</text>
    <s:alias val="$_inputExt_"/>
    <path d="M0,0 L0,20 L15,20 L30,10 L15,0 Z" class="cell_clk_i"/>
    <g s:x="28" s:y="10" s:pid="Y"/>
  </g>
  <g s:type="inputExt" transform="translate(627,397)" s:width="30" s:height="20" id="cell_n_rst_i">
    <text x="15" y="-4" class="nodelabel cell_n_rst_i" s:attribute="ref">n_rst_i</text>
    <s:alias val="$_inputExt_"/>
    <path d="M0,0 L0,20 L15,20 L30,10 L15,0 Z" class="cell_n_rst_i"/>
    <g s:x="28" s:y="10" s:pid="Y"/>
  </g>
  <g s:type="inputExt" transform="translate(307,84.5)" s:width="30" s:height="20" id="cell_ext_data_i">
    <text x="15" y="-4" class="nodelabel cell_ext_data_i" s:attribute="ref">ext_data_i</text>
    <s:alias val="$_inputExt_"/>
    <path d="M0,0 L0,20 L15,20 L30,10 L15,0 Z" class="cell_ext_data_i"/>
    <g s:x="28" s:y="10" s:pid="Y"/>
  </g>
  <g s:type="inputExt" transform="translate(12,479.5)" s:width="30" s:height="20" id="cell_ext_int_i">
    <text x="15" y="-4" class="nodelabel cell_ext_int_i" s:attribute="ref">ext_int_i</text>
    <s:alias val="$_inputExt_"/>
    <path d="M0,0 L0,20 L15,20 L30,10 L15,0 Z" class="cell_ext_int_i"/>
    <g s:x="28" s:y="10" s:pid="Y"/>
  </g>
  <g s:type="outputExt" transform="translate(897,94.5)" s:width="30" s:height="20" id="cell_result_o">
    <text x="15" y="-4" class="nodelabel cell_result_o" s:attribute="ref">result_o</text>
    <s:alias val="$_outputExt_"/>
    <path d="M30,0 L30,20 L15,20 L0,10 L15,0 Z" class="cell_result_o"/>
    <g s:x="0" s:y="10" s:pid="A"/>
  </g>
  <g s:type="outputExt" transform="translate(897,320)" s:width="30" s:height="20" id="cell_halt_o">
    <text x="15" y="-4" class="nodelabel cell_halt_o" s:attribute="ref">halt_o</text>
    <s:alias val="$_outputExt_"/>
    <path d="M30,0 L30,20 L15,20 L0,10 L15,0 Z" class="cell_halt_o"/>
    <g s:x="0" s:y="10" s:pid="A"/>
  </g>
  <g s:type="split" transform="translate(157,64)" s:width="5" s:height="40" id="cell_$split$,32,33,34,35,36,37,38,39,89,90,91,92,93,84,85,86,87,88,67,68,69,70,71,72,">
    <rect width="5" height="80" class="splitjoinBody" s:generic="body"/>
    <s:alias val="$_split_"/>
    <g s:x="0" s:y="20" s:pid="in"/>
    <g transform="translate(4,10)" s:x="4" s:y="10" s:pid="out0">
      <text x="5" y="-4">0:7</text>
    </g>
    <g transform="translate(4,30)" s:x="4" s:y="10" s:pid="out0">
      <text x="5" y="-4">18:23</text>
    </g>
    <g transform="translate(4,50)" s:x="4" s:y="10" s:pid="out0">
      <text x="5" y="-4">13:17</text>
    </g>
    <g transform="translate(4,70)" s:x="4" s:y="10" s:pid="out0">
      <text x="5" y="-4">8:12</text>
    </g>
  </g>
  <line x1="338" x2="602" y1="330" y2="330" class="net_21"/>
  <line x1="602" x2="602" y1="330" y2="346" class="net_21"/>
  <circle cx="602" cy="330" r="2" style="fill:#000" class="net_21"/>
  <line x1="602" x2="634" y1="346" y2="346" class="net_21"/>
  <line x1="338" x2="897" y1="330" y2="330" class="net_21"/>
  <line x1="338" x2="415" y1="370" y2="370" class="net_22"/>
  <line x1="415" x2="415" y1="370" y2="387" class="net_22"/>
  <line x1="415" x2="602" y1="387" y2="387" class="net_22"/>
  <line x1="602" x2="602" y1="387" y2="361" class="net_22"/>
  <line x1="602" x2="634" y1="361" y2="361" class="net_22"/>
  <line x1="537" x2="634.3333333333334" y1="74.5" y2="74.5" class="net_24,25,26,27,28,29,30,31"/>
  <line x1="162" x2="210" y1="74.5" y2="74.5" class="net_32,33,34,35,36,37,38,39"/>
  <line x1="210" x2="210" y1="74.5" y2="43" class="net_32,33,34,35,36,37,38,39"/>
  <line x1="210" x2="612" y1="43" y2="43" class="net_32,33,34,35,36,37,38,39"/>
  <line x1="612" x2="612" y1="43" y2="94.5" class="net_32,33,34,35,36,37,38,39"/>
  <circle cx="612" cy="43" r="2" style="fill:#000" class="net_32,33,34,35,36,37,38,39"/>
  <line x1="612" x2="634.3333333333334" y1="94.5" y2="94.5" class="net_32,33,34,35,36,37,38,39"/>
  <line x1="162" x2="210" y1="74.5" y2="74.5" class="net_32,33,34,35,36,37,38,39"/>
  <line x1="210" x2="210" y1="74.5" y2="43" class="net_32,33,34,35,36,37,38,39"/>
  <line x1="210" x2="679" y1="43" y2="43" class="net_32,33,34,35,36,37,38,39"/>
  <line x1="679" x2="679" y1="43" y2="247.5" class="net_32,33,34,35,36,37,38,39"/>
  <line x1="679" x2="752" y1="247.5" y2="247.5" class="net_32,33,34,35,36,37,38,39"/>
  <line x1="338" x2="415" y1="290" y2="290" class="net_40"/>
  <line x1="415" x2="415" y1="290" y2="208" class="net_40"/>
  <line x1="415" x2="644.3333333333334" y1="208" y2="208" class="net_40"/>
  <line x1="644.3333333333334" x2="644.3333333333334" y1="208" y2="99.5" class="net_40"/>
  <line x1="654.3333333333334" x2="746" y1="84.5" y2="84.5" class="net_41,42,43,44,45,46,47,48"/>
  <line x1="537" x2="602" y1="94.5" y2="94.5" class="net_49,50,51,52,53,54,55,56"/>
  <line x1="602" x2="602" y1="94.5" y2="114.5" class="net_49,50,51,52,53,54,55,56"/>
  <line x1="602" x2="689" y1="114.5" y2="114.5" class="net_49,50,51,52,53,54,55,56"/>
  <line x1="689" x2="689" y1="114.5" y2="104.5" class="net_49,50,51,52,53,54,55,56"/>
  <line x1="689" x2="746" y1="104.5" y2="104.5" class="net_49,50,51,52,53,54,55,56"/>
  <line x1="338" x2="435" y1="310" y2="310" class="net_61,62,63"/>
  <line x1="435" x2="435" y1="310" y2="219" class="net_61,62,63"/>
  <line x1="435" x2="689" y1="219" y2="219" class="net_61,62,63"/>
  <line x1="689" x2="689" y1="219" y2="124.5" class="net_61,62,63"/>
  <line x1="689" x2="746" y1="124.5" y2="124.5" class="net_61,62,63"/>
  <line x1="163" x2="210" y1="469.5" y2="469.5" class="net_64"/>
  <line x1="210" x2="210" y1="469.5" y2="290" class="net_64"/>
  <line x1="210" x2="307" y1="290" y2="290" class="net_64"/>
  <line x1="777" x2="840" y1="84.5" y2="84.5" class="net_57,58,59,60"/>
  <line x1="840" x2="840" y1="84.5" y2="427" class="net_57,58,59,60"/>
  <line x1="840" x2="220" y1="427" y2="427" class="net_57,58,59,60"/>
  <line x1="220" x2="220" y1="427" y2="310" class="net_57,58,59,60"/>
  <line x1="220" x2="307" y1="310" y2="310" class="net_57,58,59,60"/>
  <line x1="162" x2="230" y1="94.5" y2="94.5" class="net_67,68,69,70,71,72"/>
  <line x1="230" x2="230" y1="94.5" y2="330" class="net_67,68,69,70,71,72"/>
  <line x1="230" x2="307" y1="330" y2="330" class="net_67,68,69,70,71,72"/>
  <line x1="40" x2="76" y1="32" y2="32" class="net_2"/>
  <line x1="76" x2="76" y1="32" y2="469.5" class="net_2"/>
  <circle cx="76" cy="32" r="2" style="fill:#000" class="net_2"/>
  <line x1="76" x2="132" y1="469.5" y2="469.5" class="net_2"/>
  <line x1="40" x2="699" y1="32" y2="32" class="net_2"/>
  <line x1="699" x2="699" y1="32" y2="227.5" class="net_2"/>
  <line x1="699" x2="752" y1="227.5" y2="227.5" class="net_2"/>
  <line x1="40" x2="415" y1="32" y2="32" class="net_2"/>
  <line x1="415" x2="415" y1="32" y2="74.5" class="net_2"/>
  <circle cx="415" cy="32" r="2" style="fill:#000" class="net_2"/>
  <line x1="415" x2="506" y1="74.5" y2="74.5" class="net_2"/>
  <line x1="40" x2="76" y1="32" y2="32" class="net_2"/>
  <line x1="76" x2="76" y1="32" y2="438" class="net_2"/>
  <line x1="76" x2="850" y1="438" y2="438" class="net_2"/>
  <line x1="850" x2="850" y1="438" y2="247.5" class="net_2"/>
  <circle cx="76" cy="438" r="2" style="fill:#000" class="net_2"/>
  <line x1="850" x2="897" y1="247.5" y2="247.5" class="net_2"/>
  <line x1="40" x2="132" y1="489.5" y2="489.5" class="net_12"/>
  <line x1="661" x2="679" y1="353.5" y2="353.5" class="net_23"/>
  <line x1="679" x2="679" y1="353.5" y2="267.5" class="net_23"/>
  <line x1="679" x2="752" y1="267.5" y2="267.5" class="net_23"/>
  <line x1="338" x2="435" y1="350" y2="350" class="net_65,66"/>
  <line x1="435" x2="435" y1="350" y2="376" class="net_65,66"/>
  <line x1="435" x2="689" y1="376" y2="376" class="net_65,66"/>
  <line x1="689" x2="689" y1="376" y2="287.5" class="net_65,66"/>
  <line x1="689" x2="752" y1="287.5" y2="287.5" class="net_65,66"/>
  <line x1="655" x2="699" y1="407" y2="407" class="net_3"/>
  <line x1="699" x2="699" y1="407" y2="307.5" class="net_3"/>
  <line x1="699" x2="752" y1="307.5" y2="307.5" class="net_3"/>
  <line x1="335" x2="506" y1="94.5" y2="94.5" class="net_4,5,6,7,8,9,10,11"/>
  <line x1="162" x2="506" y1="114.5" y2="114.5" class="net_84,85,86,87,88"/>
  <line x1="162" x2="506" y1="134.5" y2="134.5" class="net_89,90,91,92,93"/>
  <line x1="777" x2="830" y1="104.5" y2="104.5" class="net_13,14,15,16,17,18,19,20"/>
  <line x1="830" x2="830" y1="104.5" y2="197" class="net_13,14,15,16,17,18,19,20"/>
  <line x1="830" x2="415" y1="197" y2="197" class="net_13,14,15,16,17,18,19,20"/>
  <line x1="415" x2="415" y1="197" y2="154.5" class="net_13,14,15,16,17,18,19,20"/>
  <circle cx="830" cy="104.5" r="2" style="fill:#000" class="net_13,14,15,16,17,18,19,20"/>
  <line x1="415" x2="506" y1="154.5" y2="154.5" class="net_13,14,15,16,17,18,19,20"/>
  <line x1="777" x2="897" y1="104.5" y2="104.5" class="net_13,14,15,16,17,18,19,20"/>
  <line x1="338" x2="425" y1="390" y2="390" class="net_73"/>
  <line x1="425" x2="425" y1="390" y2="174.5" class="net_73"/>
  <line x1="425" x2="506" y1="174.5" y2="174.5" class="net_73"/>
  <line x1="783" x2="897" y1="227.5" y2="227.5" class="net_74,75,76,77,78,79,80,81,82,83"/>
  <line x1="928" x2="975" y1="227.5" y2="227.5" class="net_32,33,34,35,36,37,38,39,89,90,91,92,93,84,85,86,87,88,67,68,69,70,71,72"/>
  <line x1="975" x2="975" y1="227.5" y2="21" class="net_32,33,34,35,36,37,38,39,89,90,91,92,93,84,85,86,87,88,67,68,69,70,71,72"/>
  <line x1="975" x2="86" y1="21" y2="21" class="net_32,33,34,35,36,37,38,39,89,90,91,92,93,84,85,86,87,88,67,68,69,70,71,72"/>
  <line x1="86" x2="86" y1="21" y2="84.5" class="net_32,33,34,35,36,37,38,39,89,90,91,92,93,84,85,86,87,88,67,68,69,70,71,72"/>
  <line x1="86" x2="157" y1="84.5" y2="84.5" class="net_32,33,34,35,36,37,38,39,89,90,91,92,93,84,85,86,87,88,67,68,69,70,71,72"/>
</svg>
