<svg xmlns="http://www.w3.org/2000/svg" xmlns:xlink="http://www.w3.org/1999/xlink" xmlns:s="https://github.com/nturley/netlistsvg" width="332" height="285.5">
  <style>svg {
    stroke:#000;
    fill:none;
  }
  text {
    fill:#000;
    stroke:none;
    font-size:10px;
    font-weight: bold;
    font-family: "Courier New", monospace;
  }
  .nodelabel {
    text-anchor: middle;
  }
  .inputPortLabel {
    text-anchor: end;
  }
  .splitjoinBody {
    fill:#000;
  }</style>
  <g s:type="and" transform="translate(144,13)" s:width="30" s:height="25" id="cell_$and$edge_detect.v:10$2">
    <s:alias val="$and"/>
    <s:alias val="$logic_and"/>
    <s:alias val="$_AND_"/>
    <path d="M0,0 L0,25 L15,25 A15 12.5 0 0 0 15,0 Z" class="cell_$and$edge_detect.v:10$2"/>
    <g s:x="0" s:y="5" s:pid="A"/>
    <g s:x="0" s:y="20" s:pid="B"/>
    <g s:x="30" s:y="12.5" s:pid="Y"/>
  </g>
  <g s:type="and" transform="translate(144,88)" s:width="30" s:height="25" id="cell_$and$edge_detect.v:10$4">
    <s:alias val="$and"/>
    <s:alias val="$logic_and"/>
    <s:alias val="$_AND_"/>
    <path d="M0,0 L0,25 L15,25 A15 12.5 0 0 0 15,0 Z" class="cell_$and$edge_detect.v:10$4"/>
    <g s:x="0" s:y="5" s:pid="A"/>
    <g s:x="0" s:y="20" s:pid="B"/>
    <g s:x="30" s:y="12.5" s:pid="Y"/>
  </g>
  <g s:type="not" transform="translate(79,23)" s:width="30" s:height="20" id="cell_$not$edge_detect.v:10$1">
    <s:alias val="$_NOT_"/>
    <s:alias val="$not"/>
    <s:alias val="$logic_not"/>
    <path d="M0,0 L0,20 L20,10 Z" class="cell_$not$edge_detect.v:10$1"/>
    <circle cx="23" cy="10" r="3" class="cell_$not$edge_detect.v:10$1"/>
    <g s:x="0" s:y="10" s:pid="A"/>
    <g s:x="25" s:y="10" s:pid="Y"/>
  </g>
  <g s:type="not" transform="translate(79,78)" s:width="30" s:height="20" id="cell_$not$edge_detect.v:10$3">
    <s:alias val="$_NOT_"/>
    <s:alias val="$not"/>
    <s:alias val="$logic_not"/>
    <path d="M0,0 L0,20 L20,10 Z" class="cell_$not$edge_detect.v:10$3"/>
    <circle cx="23" cy="10" r="3" class="cell_$not$edge_detect.v:10$3"/>
    <g s:x="0" s:y="10" s:pid="A"/>
    <g s:x="25" s:y="10" s:pid="Y"/>
  </g>
  <g s:type="or" transform="translate(209,80.5)" s:width="30" s:height="25" id="cell_$or$edge_detect.v:10$5">
    <s:alias val="$or"/>
    <s:alias val="$logic_or"/>
    <s:alias val="$_OR_"/>
    <path d="M0,25 L0,25 L15,25 A15 12.5 0 0 0 15,0 L0,0" class="cell_$or$edge_detect.v:10$5"/>
    <path d="M0,0 A30 25 0 0 1 0,25" class="cell_$or$edge_detect.v:10$5"/>
    <g s:x="3" s:y="5" s:pid="A"/>
    <g s:x="3" s:y="20" s:pid="B"/>
    <g s:x="30" s:y="12.5" s:pid="Y"/>
  </g>
  <g s:type="dff" transform="translate(274,222.5)" s:width="30" s:height="40" id="cell_$procdff$7">
    <s:alias val="$dff"/>
    <s:alias val="$_DFF_"/>
    <s:alias val="$_DFF_P_"/>
    <rect width="30" height="40" x="0" y="0" class="cell_$procdff$7"/>
    <path d="M0,35 L5,30 L0,25" class="cell_$procdff$7"/>
    <g s:x="30" s:y="10" s:pid="Q"/>
    <g s:x="0" s:y="30" s:pid="CLK"/>
    <g s:x="0" s:y="30" s:pid="C"/>
    <g s:x="0" s:y="10" s:pid="D"/>
  </g>
  <g s:type="inputExt" transform="translate(209,242.5)" s:width="30" s:height="20" id="cell_clk_i">
    <text x="15" y="-4" class="nodelabel cell_clk_i" s:attribute="ref">clk_i</text>
    <s:alias val="$_inputExt_"/>
    <path d="M0,0 L0,20 L15,20 L30,10 L15,0 Z" class="cell_clk_i"/>
    <g s:x="28" s:y="10" s:pid="Y"/>
  </g>
  <g s:type="inputExt" transform="translate(144,158)" s:width="30" s:height="20" id="cell_sig_i">
    <text x="15" y="-4" class="nodelabel cell_sig_i" s:attribute="ref">sig_i</text>
    <s:alias val="$_inputExt_"/>
    <path d="M0,0 L0,20 L15,20 L30,10 L15,0 Z" class="cell_sig_i"/>
    <g s:x="28" s:y="10" s:pid="Y"/>
  </g>
  <g s:type="outputExt" transform="translate(274,83)" s:width="30" s:height="20" id="cell_edge_o">
    <text x="15" y="-4" class="nodelabel cell_edge_o" s:attribute="ref">edge_o</text>
    <s:alias val="$_outputExt_"/>
    <path d="M30,0 L30,20 L15,20 L0,10 L15,0 Z" class="cell_edge_o"/>
    <g s:x="0" s:y="10" s:pid="A"/>
  </g>
  <g s:type="join" transform="translate(220,157.5)" s:width="4" s:height="40" id="cell_$join$,3,11,9,">
    <rect width="5" height="40" class="splitjoinBody" s:generic="body"/>
    <s:alias val="$_join_"/>
    <g s:x="5" s:y="20" s:pid="out"/>
    <g transform="translate(0,10)" s:x="0" s:y="10" s:pid="in0">
      <text x="-3" y="-4" class="inputPortLabel">0</text>
    </g>
    <g transform="translate(0,30)" s:x="0" s:y="10" s:pid="in0">
      <text x="-3" y="-4" class="inputPortLabel">1:2</text>
    </g>
  </g>
  <g s:type="split" transform="translate(32,137.5)" s:width="5" s:height="40" id="cell_$split$,11,9,5,">
    <rect width="5" height="60" class="splitjoinBody" s:generic="body"/>
    <s:alias val="$_split_"/>
    <g s:x="0" s:y="20" s:pid="in"/>
    <g transform="translate(4,10)" s:x="4" s:y="10" s:pid="out0">
      <text x="5" y="-4">2</text>
    </g>
    <g transform="translate(4,30)" s:x="4" s:y="10" s:pid="out0">
      <text x="5" y="-4">1</text>
    </g>
    <g transform="translate(4,50)" s:x="4" s:y="10" s:pid="out0">
      <text x="5" y="-4">0:1</text>
    </g>
  </g>
  <line x1="37" x2="54" y1="148" y2="148" class="net_5"/>
  <line x1="54" x2="54" y1="148" y2="12" class="net_5"/>
  <line x1="54" x2="119" y1="12" y2="12" class="net_5"/>
  <line x1="119" x2="119" y1="12" y2="18" class="net_5"/>
  <line x1="119" x2="144" y1="18" y2="18" class="net_5"/>
  <line x1="37" x2="54" y1="148" y2="148" class="net_5"/>
  <line x1="54" x2="54" y1="148" y2="88" class="net_5"/>
  <circle cx="54" cy="88" r="2" style="fill:#000" class="net_5"/>
  <line x1="54" x2="79" y1="88" y2="88" class="net_5"/>
  <line x1="104" x2="144" y1="33" y2="33" class="net_6"/>
  <line x1="104" x2="119" y1="88" y2="88" class="net_8"/>
  <line x1="119" x2="119" y1="88" y2="93" class="net_8"/>
  <line x1="119" x2="144" y1="93" y2="93" class="net_8"/>
  <line x1="37" x2="64" y1="168" y2="168" class="net_9"/>
  <line x1="64" x2="64" y1="168" y2="108" class="net_9"/>
  <circle cx="64" cy="108" r="2" style="fill:#000" class="net_9"/>
  <line x1="64" x2="144" y1="108" y2="108" class="net_9"/>
  <line x1="37" x2="64" y1="168" y2="168" class="net_9"/>
  <line x1="64" x2="64" y1="168" y2="33" class="net_9"/>
  <line x1="64" x2="79" y1="33" y2="33" class="net_9"/>
  <line x1="174" x2="184" y1="25.5" y2="25.5" class="net_7"/>
  <line x1="184" x2="184" y1="25.5" y2="85.5" class="net_7"/>
  <line x1="184" x2="212" y1="85.5" y2="85.5" class="net_7"/>
  <line x1="174" x2="212" y1="100.5" y2="100.5" class="net_10"/>
  <line x1="237" x2="274" y1="252.5" y2="252.5" class="net_2"/>
  <line x1="226" x2="249" y1="178" y2="178" class="net_3,11,9"/>
  <line x1="249" x2="249" y1="178" y2="232.5" class="net_3,11,9"/>
  <line x1="249" x2="274" y1="232.5" y2="232.5" class="net_3,11,9"/>
  <line x1="239" x2="274" y1="93" y2="93" class="net_4"/>
  <line x1="172" x2="220" y1="168" y2="168" class="net_3"/>
  <line x1="37" x2="220" y1="188" y2="188" class="net_11,9"/>
  <line x1="304" x2="320" y1="232.5" y2="232.5" class="net_11,9,5"/>
  <line x1="320" x2="320" y1="232.5" y2="272.5" class="net_11,9,5"/>
  <line x1="320" x2="12" y1="272.5" y2="272.5" class="net_11,9,5"/>
  <line x1="12" x2="12" y1="272.5" y2="158" class="net_11,9,5"/>
  <line x1="12" x2="32" y1="158" y2="158" class="net_11,9,5"/>
</svg>
