<svg xmlns="http://www.w3.org/2000/svg" xmlns:xlink="http://www.w3.org/1999/xlink" xmlns:s="https://github.com/nturley/netlistsvg" width="469" height="543.5">
  <style>svg {
    stroke:#000;
    fill:none;
  }
  text {
    fill:#000;
    stroke:none;
    font-size:10px;
    font-weight: bold;
    font-family: "Courier New", monospace;
  }
  .nodelabel {
    text-anchor: middle;
  }
  .inputPortLabel {
    text-anchor: end;
  }
  .splitjoinBody {
    fill:#000;
  }</style>
  <g s:type="and" transform="translate(162,88)" s:width="30" s:height="25" id="cell_$and$ovf.v:10$24">
    <s:alias val="$and"/>
    <s:alias val="$logic_and"/>
    <s:alias val="$_AND_"/>
    <path d="M0,0 L0,25 L15,25 A15 12.5 0 0 0 15,0 Z" class="cell_$and$ovf.v:10$24"/>
    <g s:x="0" s:y="5" s:pid="A"/>
    <g s:x="0" s:y="20" s:pid="B"/>
    <g s:x="30" s:y="12.5" s:pid="Y"/>
  </g>
  <g s:type="and" transform="translate(242,260.5)" s:width="30" s:height="25" id="cell_$and$ovf.v:10$26">
    <s:alias val="$and"/>
    <s:alias val="$logic_and"/>
    <s:alias val="$_AND_"/>
    <path d="M0,0 L0,25 L15,25 A15 12.5 0 0 0 15,0 Z" class="cell_$and$ovf.v:10$26"/>
    <g s:x="0" s:y="5" s:pid="A"/>
    <g s:x="0" s:y="20" s:pid="B"/>
    <g s:x="30" s:y="12.5" s:pid="Y"/>
  </g>
  <g s:type="and" transform="translate(162,361.5)" s:width="30" s:height="25" id="cell_$and$ovf.v:10$29">
    <s:alias val="$and"/>
    <s:alias val="$logic_and"/>
    <s:alias val="$_AND_"/>
    <path d="M0,0 L0,25 L15,25 A15 12.5 0 0 0 15,0 Z" class="cell_$and$ovf.v:10$29"/>
    <g s:x="0" s:y="5" s:pid="A"/>
    <g s:x="0" s:y="20" s:pid="B"/>
    <g s:x="30" s:y="12.5" s:pid="Y"/>
  </g>
  <g s:type="and" transform="translate(242,376.5)" s:width="30" s:height="25" id="cell_$and$ovf.v:10$30">
    <s:alias val="$and"/>
    <s:alias val="$logic_and"/>
    <s:alias val="$_AND_"/>
    <path d="M0,0 L0,25 L15,25 A15 12.5 0 0 0 15,0 Z" class="cell_$and$ovf.v:10$30"/>
    <g s:x="0" s:y="5" s:pid="A"/>
    <g s:x="0" s:y="20" s:pid="B"/>
    <g s:x="30" s:y="12.5" s:pid="Y"/>
  </g>
  <g s:type="and" transform="translate(162,148)" s:width="30" s:height="25" id="cell_$and$ovf.v:5$4">
    <s:alias val="$and"/>
    <s:alias val="$logic_and"/>
    <s:alias val="$_AND_"/>
    <path d="M0,0 L0,25 L15,25 A15 12.5 0 0 0 15,0 Z" class="cell_$and$ovf.v:5$4"/>
    <g s:x="0" s:y="5" s:pid="A"/>
    <g s:x="0" s:y="20" s:pid="B"/>
    <g s:x="30" s:y="12.5" s:pid="Y"/>
  </g>
  <g s:type="and" transform="translate(242,200.5)" s:width="30" s:height="25" id="cell_$and$ovf.v:5$7">
    <s:alias val="$and"/>
    <s:alias val="$logic_and"/>
    <s:alias val="$_AND_"/>
    <path d="M0,0 L0,25 L15,25 A15 12.5 0 0 0 15,0 Z" class="cell_$and$ovf.v:5$7"/>
    <g s:x="0" s:y="5" s:pid="A"/>
    <g s:x="0" s:y="20" s:pid="B"/>
    <g s:x="30" s:y="12.5" s:pid="Y"/>
  </g>
  <g s:type="and" transform="translate(162,434)" s:width="30" s:height="25" id="cell_$and$ovf.v:6$10">
    <s:alias val="$and"/>
    <s:alias val="$logic_and"/>
    <s:alias val="$_AND_"/>
    <path d="M0,0 L0,25 L15,25 A15 12.5 0 0 0 15,0 Z" class="cell_$and$ovf.v:6$10"/>
    <g s:x="0" s:y="5" s:pid="A"/>
    <g s:x="0" s:y="20" s:pid="B"/>
    <g s:x="30" s:y="12.5" s:pid="Y"/>
  </g>
  <g s:type="and" transform="translate(242,441.5)" s:width="30" s:height="25" id="cell_$and$ovf.v:6$12">
    <s:alias val="$and"/>
    <s:alias val="$logic_and"/>
    <s:alias val="$_AND_"/>
    <path d="M0,0 L0,25 L15,25 A15 12.5 0 0 0 15,0 Z" class="cell_$and$ovf.v:6$12"/>
    <g s:x="0" s:y="5" s:pid="A"/>
    <g s:x="0" s:y="20" s:pid="B"/>
    <g s:x="30" s:y="12.5" s:pid="Y"/>
  </g>
  <g s:type="and" transform="translate(162,291.5)" s:width="30" s:height="25" id="cell_$and$ovf.v:6$14">
    <s:alias val="$and"/>
    <s:alias val="$logic_and"/>
    <s:alias val="$_AND_"/>
    <path d="M0,0 L0,25 L15,25 A15 12.5 0 0 0 15,0 Z" class="cell_$and$ovf.v:6$14"/>
    <g s:x="0" s:y="5" s:pid="A"/>
    <g s:x="0" s:y="20" s:pid="B"/>
    <g s:x="30" s:y="12.5" s:pid="Y"/>
  </g>
  <g s:type="and" transform="translate(242,501.5)" s:width="30" s:height="25" id="cell_$and$ovf.v:6$15">
    <s:alias val="$and"/>
    <s:alias val="$logic_and"/>
    <s:alias val="$_AND_"/>
    <path d="M0,0 L0,25 L15,25 A15 12.5 0 0 0 15,0 Z" class="cell_$and$ovf.v:6$15"/>
    <g s:x="0" s:y="5" s:pid="A"/>
    <g s:x="0" s:y="20" s:pid="B"/>
    <g s:x="30" s:y="12.5" s:pid="Y"/>
  </g>
  <g s:type="and" transform="translate(162,19.5)" s:width="30" s:height="25" id="cell_$and$ovf.v:9$19">
    <s:alias val="$and"/>
    <s:alias val="$logic_and"/>
    <s:alias val="$_AND_"/>
    <path d="M0,0 L0,25 L15,25 A15 12.5 0 0 0 15,0 Z" class="cell_$and$ovf.v:9$19"/>
    <g s:x="0" s:y="5" s:pid="A"/>
    <g s:x="0" s:y="20" s:pid="B"/>
    <g s:x="30" s:y="12.5" s:pid="Y"/>
  </g>
  <g s:type="and" transform="translate(242,72)" s:width="30" s:height="25" id="cell_$and$ovf.v:9$22">
    <s:alias val="$and"/>
    <s:alias val="$logic_and"/>
    <s:alias val="$_AND_"/>
    <path d="M0,0 L0,25 L15,25 A15 12.5 0 0 0 15,0 Z" class="cell_$and$ovf.v:9$22"/>
    <g s:x="0" s:y="5" s:pid="A"/>
    <g s:x="0" s:y="20" s:pid="B"/>
    <g s:x="30" s:y="12.5" s:pid="Y"/>
  </g>
  <g s:type="not" transform="translate(82,188.5)" s:width="30" s:height="20" id="cell_$not$ovf.v:10$25">
    <s:alias val="$_NOT_"/>
    <s:alias val="$not"/>
    <s:alias val="$logic_not"/>
    <path d="M0,0 L0,20 L20,10 Z" class="cell_$not$ovf.v:10$25"/>
    <circle cx="23" cy="10" r="3" class="cell_$not$ovf.v:10$25"/>
    <g s:x="0" s:y="10" s:pid="A"/>
    <g s:x="25" s:y="10" s:pid="Y"/>
  </g>
  <g s:type="not" transform="translate(82,356.5)" s:width="30" s:height="20" id="cell_$not$ovf.v:10$27">
    <s:alias val="$_NOT_"/>
    <s:alias val="$not"/>
    <s:alias val="$logic_not"/>
    <path d="M0,0 L0,20 L20,10 Z" class="cell_$not$ovf.v:10$27"/>
    <circle cx="23" cy="10" r="3" class="cell_$not$ovf.v:10$27"/>
    <g s:x="0" s:y="10" s:pid="A"/>
    <g s:x="25" s:y="10" s:pid="Y"/>
  </g>
  <g s:type="not" transform="translate(82,301.5)" s:width="30" s:height="20" id="cell_$not$ovf.v:10$28">
    <s:alias val="$_NOT_"/>
    <s:alias val="$not"/>
    <s:alias val="$logic_not"/>
    <path d="M0,0 L0,20 L20,10 Z" class="cell_$not$ovf.v:10$28"/>
    <circle cx="23" cy="10" r="3" class="cell_$not$ovf.v:10$28"/>
    <g s:x="0" s:y="10" s:pid="A"/>
    <g s:x="25" s:y="10" s:pid="Y"/>
  </g>
  <g s:type="or" transform="translate(307,369)" s:width="30" s:height="25" id="cell_$or$ovf.v:10$31">
    <s:alias val="$or"/>
    <s:alias val="$logic_or"/>
    <s:alias val="$_OR_"/>
    <path d="M0,25 L0,25 L15,25 A15 12.5 0 0 0 15,0 L0,0" class="cell_$or$ovf.v:10$31"/>
    <path d="M0,0 A30 25 0 0 1 0,25" class="cell_$or$ovf.v:10$31"/>
    <g s:x="3" s:y="5" s:pid="A"/>
    <g s:x="3" s:y="20" s:pid="B"/>
    <g s:x="30" s:y="12.5" s:pid="Y"/>
  </g>
  <g s:type="or" transform="translate(242,140.5)" s:width="30" s:height="25" id="cell_$or$ovf.v:5$5">
    <s:alias val="$or"/>
    <s:alias val="$logic_or"/>
    <s:alias val="$_OR_"/>
    <path d="M0,25 L0,25 L15,25 A15 12.5 0 0 0 15,0 L0,0" class="cell_$or$ovf.v:5$5"/>
    <path d="M0,0 A30 25 0 0 1 0,25" class="cell_$or$ovf.v:5$5"/>
    <g s:x="3" s:y="5" s:pid="A"/>
    <g s:x="3" s:y="20" s:pid="B"/>
    <g s:x="30" s:y="12.5" s:pid="Y"/>
  </g>
  <g s:type="or" transform="translate(307,193)" s:width="30" s:height="25" id="cell_$or$ovf.v:5$8">
    <s:alias val="$or"/>
    <s:alias val="$logic_or"/>
    <s:alias val="$_OR_"/>
    <path d="M0,25 L0,25 L15,25 A15 12.5 0 0 0 15,0 L0,0" class="cell_$or$ovf.v:5$8"/>
    <path d="M0,0 A30 25 0 0 1 0,25" class="cell_$or$ovf.v:5$8"/>
    <g s:x="3" s:y="5" s:pid="A"/>
    <g s:x="3" s:y="20" s:pid="B"/>
    <g s:x="30" s:y="12.5" s:pid="Y"/>
  </g>
  <g s:type="or" transform="translate(307,494)" s:width="30" s:height="25" id="cell_$or$ovf.v:6$16">
    <s:alias val="$or"/>
    <s:alias val="$logic_or"/>
    <s:alias val="$_OR_"/>
    <path d="M0,25 L0,25 L15,25 A15 12.5 0 0 0 15,0 L0,0" class="cell_$or$ovf.v:6$16"/>
    <path d="M0,0 A30 25 0 0 1 0,25" class="cell_$or$ovf.v:6$16"/>
    <g s:x="3" s:y="5" s:pid="A"/>
    <g s:x="3" s:y="20" s:pid="B"/>
    <g s:x="30" s:y="12.5" s:pid="Y"/>
  </g>
  <g s:type="or" transform="translate(242,12)" s:width="30" s:height="25" id="cell_$or$ovf.v:9$20">
    <s:alias val="$or"/>
    <s:alias val="$logic_or"/>
    <s:alias val="$_OR_"/>
    <path d="M0,25 L0,25 L15,25 A15 12.5 0 0 0 15,0 L0,0" class="cell_$or$ovf.v:9$20"/>
    <path d="M0,0 A30 25 0 0 1 0,25" class="cell_$or$ovf.v:9$20"/>
    <g s:x="3" s:y="5" s:pid="A"/>
    <g s:x="3" s:y="20" s:pid="B"/>
    <g s:x="30" s:y="12.5" s:pid="Y"/>
  </g>
  <g s:type="or" transform="translate(307,64.5)" s:width="30" s:height="25" id="cell_$or$ovf.v:9$23">
    <s:alias val="$or"/>
    <s:alias val="$logic_or"/>
    <s:alias val="$_OR_"/>
    <path d="M0,25 L0,25 L15,25 A15 12.5 0 0 0 15,0 L0,0" class="cell_$or$ovf.v:9$23"/>
    <path d="M0,0 A30 25 0 0 1 0,25" class="cell_$or$ovf.v:9$23"/>
    <g s:x="3" s:y="5" s:pid="A"/>
    <g s:x="3" s:y="20" s:pid="B"/>
    <g s:x="30" s:y="12.5" s:pid="Y"/>
  </g>
  <g s:type="mux" transform="translate(372,371.5)" s:width="20" s:height="40" id="cell_$procmux$33">
    <s:alias val="$pmux"/>
    <s:alias val="$mux"/>
    <s:alias val="$_MUX_"/>
    <path d="M0,0 L20,10 L20,30 L0,40 Z" class="cell_$procmux$33"/>
    <g s:x="0" s:y="10" s:pid="A"/>
    <g s:x="0" s:y="30" s:pid="B"/>
    <g s:x="10" s:y="35" s:pid="S"/>
    <g s:x="20" s:y="20" s:pid="Y"/>
  </g>
  <g s:type="mux" transform="translate(372,175.5)" s:width="20" s:height="40" id="cell_$procmux$36">
    <s:alias val="$pmux"/>
    <s:alias val="$mux"/>
    <s:alias val="$_MUX_"/>
    <path d="M0,0 L20,10 L20,30 L0,40 Z" class="cell_$procmux$36"/>
    <g s:x="0" s:y="10" s:pid="A"/>
    <g s:x="0" s:y="30" s:pid="B"/>
    <g s:x="10" s:y="35" s:pid="S"/>
    <g s:x="20" s:y="20" s:pid="Y"/>
  </g>
  <g s:type="inputExt" transform="translate(12,356.5)" s:width="30" s:height="20" id="cell_a">
    <text x="15" y="-4" class="nodelabel cell_a" s:attribute="ref">a</text>
    <s:alias val="$_inputExt_"/>
    <path d="M0,0 L0,20 L15,20 L30,10 L15,0 Z" class="cell_a"/>
    <g s:x="28" s:y="10" s:pid="Y"/>
  </g>
  <g s:type="inputExt" transform="translate(12,444)" s:width="30" s:height="20" id="cell_b">
    <text x="15" y="-4" class="nodelabel cell_b" s:attribute="ref">b</text>
    <s:alias val="$_inputExt_"/>
    <path d="M0,0 L0,20 L15,20 L30,10 L15,0 Z" class="cell_b"/>
    <g s:x="28" s:y="10" s:pid="Y"/>
  </g>
  <g s:type="inputExt" transform="translate(12,511.5)" s:width="30" s:height="20" id="cell_r">
    <text x="15" y="-4" class="nodelabel cell_r" s:attribute="ref">r</text>
    <s:alias val="$_inputExt_"/>
    <path d="M0,0 L0,20 L15,20 L30,10 L15,0 Z" class="cell_r"/>
    <g s:x="28" s:y="10" s:pid="Y"/>
  </g>
  <g s:type="inputExt" transform="translate(307,439)" s:width="30" s:height="20" id="cell_s">
    <text x="15" y="-4" class="nodelabel cell_s" s:attribute="ref">s</text>
    <s:alias val="$_inputExt_"/>
    <path d="M0,0 L0,20 L15,20 L30,10 L15,0 Z" class="cell_s"/>
    <g s:x="28" s:y="10" s:pid="Y"/>
  </g>
  <g s:type="outputExt" transform="translate(427,381.5)" s:width="30" s:height="20" id="cell_v">
    <text x="15" y="-4" class="nodelabel cell_v" s:attribute="ref">v</text>
    <s:alias val="$_outputExt_"/>
    <path d="M30,0 L30,20 L15,20 L0,10 L15,0 Z" class="cell_v"/>
    <g s:x="0" s:y="10" s:pid="A"/>
  </g>
  <g s:type="outputExt" transform="translate(427,185.5)" s:width="30" s:height="20" id="cell_c">
    <text x="15" y="-4" class="nodelabel cell_c" s:attribute="ref">c</text>
    <s:alias val="$_outputExt_"/>
    <path d="M30,0 L30,20 L15,20 L0,10 L15,0 Z" class="cell_c"/>
    <g s:x="0" s:y="10" s:pid="A"/>
  </g>
  <line x1="40" x2="52" y1="366.5" y2="366.5" class="net_2"/>
  <line x1="52" x2="52" y1="366.5" y2="97" class="net_2"/>
  <line x1="52" x2="142" y1="97" y2="97" class="net_2"/>
  <line x1="142" x2="142" y1="97" y2="93" class="net_2"/>
  <circle cx="52" cy="366.5" r="2" style="fill:#000" class="net_2"/>
  <circle cx="52" cy="97" r="2" style="fill:#000" class="net_2"/>
  <line x1="142" x2="162" y1="93" y2="93" class="net_2"/>
  <line x1="40" x2="52" y1="366.5" y2="366.5" class="net_2"/>
  <line x1="52" x2="52" y1="366.5" y2="157" class="net_2"/>
  <line x1="52" x2="142" y1="157" y2="157" class="net_2"/>
  <line x1="142" x2="142" y1="157" y2="153" class="net_2"/>
  <circle cx="52" cy="157" r="2" style="fill:#000" class="net_2"/>
  <line x1="142" x2="162" y1="153" y2="153" class="net_2"/>
  <line x1="40" x2="52" y1="366.5" y2="366.5" class="net_2"/>
  <line x1="52" x2="52" y1="366.5" y2="290.5" class="net_2"/>
  <line x1="52" x2="152" y1="290.5" y2="290.5" class="net_2"/>
  <line x1="152" x2="152" y1="290.5" y2="296.5" class="net_2"/>
  <circle cx="52" cy="290.5" r="2" style="fill:#000" class="net_2"/>
  <line x1="152" x2="162" y1="296.5" y2="296.5" class="net_2"/>
  <line x1="40" x2="52" y1="366.5" y2="366.5" class="net_2"/>
  <line x1="52" x2="52" y1="366.5" y2="24.5" class="net_2"/>
  <line x1="52" x2="162" y1="24.5" y2="24.5" class="net_2"/>
  <line x1="40" x2="82" y1="366.5" y2="366.5" class="net_2"/>
  <line x1="40" x2="62" y1="454" y2="454" class="net_3"/>
  <line x1="62" x2="62" y1="454" y2="108" class="net_3"/>
  <circle cx="62" cy="454" r="2" style="fill:#000" class="net_3"/>
  <circle cx="62" cy="108" r="2" style="fill:#000" class="net_3"/>
  <line x1="62" x2="162" y1="108" y2="108" class="net_3"/>
  <line x1="40" x2="162" y1="454" y2="454" class="net_3"/>
  <line x1="40" x2="62" y1="454" y2="454" class="net_3"/>
  <line x1="62" x2="62" y1="454" y2="77" class="net_3"/>
  <line x1="62" x2="242" y1="77" y2="77" class="net_3"/>
  <line x1="40" x2="62" y1="454" y2="454" class="net_3"/>
  <line x1="62" x2="62" y1="454" y2="311.5" class="net_3"/>
  <circle cx="62" cy="311.5" r="2" style="fill:#000" class="net_3"/>
  <line x1="62" x2="82" y1="311.5" y2="311.5" class="net_3"/>
  <line x1="192" x2="202" y1="100.5" y2="100.5" class="net_8"/>
  <line x1="202" x2="202" y1="100.5" y2="265.5" class="net_8"/>
  <circle cx="202" cy="100.5" r="2" style="fill:#000" class="net_8"/>
  <line x1="202" x2="242" y1="265.5" y2="265.5" class="net_8"/>
  <line x1="192" x2="202" y1="100.5" y2="100.5" class="net_8"/>
  <line x1="202" x2="202" y1="100.5" y2="17" class="net_8"/>
  <line x1="202" x2="245" y1="17" y2="17" class="net_8"/>
  <line x1="107" x2="132" y1="198.5" y2="198.5" class="net_9"/>
  <line x1="132" x2="132" y1="198.5" y2="280.5" class="net_9"/>
  <circle cx="132" cy="198.5" r="2" style="fill:#000" class="net_9"/>
  <circle cx="132" cy="280.5" r="2" style="fill:#000" class="net_9"/>
  <line x1="132" x2="242" y1="280.5" y2="280.5" class="net_9"/>
  <line x1="107" x2="132" y1="198.5" y2="198.5" class="net_9"/>
  <line x1="132" x2="132" y1="198.5" y2="423" class="net_9"/>
  <line x1="132" x2="202" y1="423" y2="423" class="net_9"/>
  <line x1="202" x2="202" y1="423" y2="461.5" class="net_9"/>
  <line x1="202" x2="242" y1="461.5" y2="461.5" class="net_9"/>
  <line x1="107" x2="132" y1="198.5" y2="198.5" class="net_9"/>
  <line x1="132" x2="132" y1="198.5" y2="39.5" class="net_9"/>
  <line x1="132" x2="162" y1="39.5" y2="39.5" class="net_9"/>
  <line x1="107" x2="212" y1="198.5" y2="198.5" class="net_9"/>
  <line x1="212" x2="212" y1="198.5" y2="92" class="net_9"/>
  <line x1="212" x2="242" y1="92" y2="92" class="net_9"/>
  <line x1="107" x2="162" y1="366.5" y2="366.5" class="net_11"/>
  <line x1="107" x2="122" y1="366.5" y2="366.5" class="net_11"/>
  <line x1="122" x2="122" y1="366.5" y2="439" class="net_11"/>
  <circle cx="122" cy="366.5" r="2" style="fill:#000" class="net_11"/>
  <line x1="122" x2="162" y1="439" y2="439" class="net_11"/>
  <line x1="107" x2="142" y1="311.5" y2="311.5" class="net_12"/>
  <line x1="142" x2="142" y1="311.5" y2="381.5" class="net_12"/>
  <circle cx="142" cy="311.5" r="2" style="fill:#000" class="net_12"/>
  <line x1="142" x2="162" y1="381.5" y2="381.5" class="net_12"/>
  <line x1="107" x2="142" y1="311.5" y2="311.5" class="net_12"/>
  <line x1="142" x2="142" y1="311.5" y2="209.5" class="net_12"/>
  <line x1="142" x2="232" y1="209.5" y2="209.5" class="net_12"/>
  <line x1="232" x2="232" y1="209.5" y2="205.5" class="net_12"/>
  <line x1="232" x2="242" y1="205.5" y2="205.5" class="net_12"/>
  <line x1="107" x2="162" y1="311.5" y2="311.5" class="net_12"/>
  <line x1="192" x2="202" y1="374" y2="374" class="net_13"/>
  <line x1="202" x2="202" y1="374" y2="381.5" class="net_13"/>
  <line x1="202" x2="242" y1="381.5" y2="381.5" class="net_13"/>
  <line x1="40" x2="72" y1="521.5" y2="521.5" class="net_4"/>
  <line x1="72" x2="72" y1="521.5" y2="396.5" class="net_4"/>
  <circle cx="72" cy="521.5" r="2" style="fill:#000" class="net_4"/>
  <circle cx="72" cy="396.5" r="2" style="fill:#000" class="net_4"/>
  <line x1="72" x2="242" y1="396.5" y2="396.5" class="net_4"/>
  <line x1="40" x2="72" y1="521.5" y2="521.5" class="net_4"/>
  <line x1="72" x2="72" y1="521.5" y2="168" class="net_4"/>
  <line x1="72" x2="162" y1="168" y2="168" class="net_4"/>
  <line x1="40" x2="72" y1="521.5" y2="521.5" class="net_4"/>
  <line x1="72" x2="72" y1="521.5" y2="220.5" class="net_4"/>
  <circle cx="72" cy="220.5" r="2" style="fill:#000" class="net_4"/>
  <line x1="72" x2="242" y1="220.5" y2="220.5" class="net_4"/>
  <line x1="40" x2="242" y1="521.5" y2="521.5" class="net_4"/>
  <line x1="40" x2="72" y1="521.5" y2="521.5" class="net_4"/>
  <line x1="72" x2="72" y1="521.5" y2="198.5" class="net_4"/>
  <circle cx="72" cy="198.5" r="2" style="fill:#000" class="net_4"/>
  <line x1="72" x2="82" y1="198.5" y2="198.5" class="net_4"/>
  <line x1="192" x2="242" y1="446.5" y2="446.5" class="net_17"/>
  <line x1="192" x2="222" y1="304" y2="304" class="net_19"/>
  <line x1="222" x2="222" y1="304" y2="506.5" class="net_19"/>
  <circle cx="222" cy="304" r="2" style="fill:#000" class="net_19"/>
  <line x1="222" x2="242" y1="506.5" y2="506.5" class="net_19"/>
  <line x1="192" x2="222" y1="304" y2="304" class="net_19"/>
  <line x1="222" x2="222" y1="304" y2="145.5" class="net_19"/>
  <line x1="222" x2="245" y1="145.5" y2="145.5" class="net_19"/>
  <line x1="272" x2="282" y1="273" y2="273" class="net_10"/>
  <line x1="282" x2="282" y1="273" y2="374" class="net_10"/>
  <line x1="282" x2="310" y1="374" y2="374" class="net_10"/>
  <line x1="272" x2="310" y1="389" y2="389" class="net_14"/>
  <line x1="192" x2="245" y1="160.5" y2="160.5" class="net_15"/>
  <line x1="272" x2="282" y1="153" y2="153" class="net_24"/>
  <line x1="282" x2="282" y1="153" y2="198" class="net_24"/>
  <line x1="282" x2="310" y1="198" y2="198" class="net_24"/>
  <line x1="272" x2="310" y1="213" y2="213" class="net_16"/>
  <line x1="272" x2="282" y1="454" y2="454" class="net_18"/>
  <line x1="282" x2="282" y1="454" y2="499" class="net_18"/>
  <line x1="282" x2="310" y1="499" y2="499" class="net_18"/>
  <line x1="272" x2="310" y1="514" y2="514" class="net_20"/>
  <line x1="192" x2="245" y1="32" y2="32" class="net_21"/>
  <line x1="272" x2="282" y1="24.5" y2="24.5" class="net_27"/>
  <line x1="282" x2="282" y1="24.5" y2="69.5" class="net_27"/>
  <line x1="282" x2="310" y1="69.5" y2="69.5" class="net_27"/>
  <line x1="272" x2="310" y1="84.5" y2="84.5" class="net_22"/>
  <line x1="337" x2="372" y1="381.5" y2="381.5" class="net_23"/>
  <line x1="337" x2="357" y1="506.5" y2="506.5" class="net_26"/>
  <line x1="357" x2="357" y1="506.5" y2="401.5" class="net_26"/>
  <line x1="357" x2="372" y1="401.5" y2="401.5" class="net_26"/>
  <line x1="335" x2="382" y1="449" y2="449" class="net_5"/>
  <line x1="382" x2="382" y1="449" y2="406.5" class="net_5"/>
  <line x1="335" x2="347" y1="449" y2="449" class="net_5"/>
  <line x1="347" x2="347" y1="449" y2="361.5" class="net_5"/>
  <line x1="347" x2="382" y1="361.5" y2="361.5" class="net_5"/>
  <circle cx="347" cy="449" r="2" style="fill:#000" class="net_5"/>
  <line x1="382" x2="382" y1="361.5" y2="210.5" class="net_5"/>
  <line x1="337" x2="347" y1="77" y2="77" class="net_28"/>
  <line x1="347" x2="347" y1="77" y2="185.5" class="net_28"/>
  <line x1="347" x2="372" y1="185.5" y2="185.5" class="net_28"/>
  <line x1="337" x2="372" y1="205.5" y2="205.5" class="net_25"/>
  <line x1="392" x2="427" y1="391.5" y2="391.5" class="net_6"/>
  <line x1="392" x2="427" y1="195.5" y2="195.5" class="net_7"/>
</svg>
