<svg xmlns="http://www.w3.org/2000/svg" xmlns:xlink="http://www.w3.org/1999/xlink" xmlns:s="https://github.com/nturley/netlistsvg" width="1511" height="712">
  <style>svg {
    stroke:#000;
    fill:none;
  }
  text {
    fill:#000;
    stroke:none;
    font-size:10px;
    font-weight: bold;
    font-family: "Courier New", monospace;
  }
  .nodelabel {
    text-anchor: middle;
  }
  .inputPortLabel {
    text-anchor: end;
  }
  .splitjoinBody {
    fill:#000;
  }</style>
  <g s:type="add" transform="translate(968,76)" s:width="25" s:height="25" id="cell_$add$pc.v:34$23">
    <s:alias val="$add"/>
    <circle r="12.5" cx="12.5" cy="12.5" class="cell_$add$pc.v:34$23"/>
    <line x1="7.5" x2="17.5" y1="12.5" y2="12.5" class="cell_$add$pc.v:34$23"/>
    <line x1="12.5" x2="12.5" y1="7.5" y2="17.5" class="cell_$add$pc.v:34$23"/>
    <g s:x="3" s:y="5" s:pid="A"/>
    <g s:x="3" s:y="20" s:pid="B"/>
    <g s:x="25" s:y="12.5" s:pid="Y"/>
  </g>
  <g s:type="add" transform="translate(303,384.5)" s:width="25" s:height="25" id="cell_$add$pc.v:36$24">
    <s:alias val="$add"/>
    <circle r="12.5" cx="12.5" cy="12.5" class="cell_$add$pc.v:36$24"/>
    <line x1="7.5" x2="17.5" y1="12.5" y2="12.5" class="cell_$add$pc.v:36$24"/>
    <line x1="12.5" x2="12.5" y1="7.5" y2="17.5" class="cell_$add$pc.v:36$24"/>
    <g s:x="3" s:y="5" s:pid="A"/>
    <g s:x="3" s:y="20" s:pid="B"/>
    <g s:x="25" s:y="12.5" s:pid="Y"/>
  </g>
  <g s:type="generic" transform="translate(226,495.5)" s:width="30" s:height="40" id="cell_$auto$opt_dff.cc:218:make_patterns_logic$91">
    <text x="15" y="-4" class="nodelabel cell_$auto$opt_dff.cc:218:make_patterns_logic$91" s:attribute="ref">$reduce_bool</text>
    <rect width="30" height="20" s:generic="body" class="cell_$auto$opt_dff.cc:218:make_patterns_logic$91"/>
    <g transform="translate(0,10)" s:x="0" s:y="10" s:pid="in0" id="port_$auto$opt_dff.cc:218:make_patterns_logic$91~A">
      <text x="-3" y="-4" class="inputPortLabel cell_$auto$opt_dff.cc:218:make_patterns_logic$91">A</text>
    </g>
    <g transform="translate(30,10)" s:x="30" s:y="10" s:pid="out0" id="port_$auto$opt_dff.cc:218:make_patterns_logic$91~Y">
      <text x="5" y="-4" style="fill:#000; stroke:none" class="cell_$auto$opt_dff.cc:218:make_patterns_logic$91">Y</text>
    </g>
  </g>
  <g s:type="not" transform="translate(336.5,430.5)" s:width="30" s:height="20" id="cell_$auto$opt_dff.cc:233:make_patterns_logic$92">
    <s:alias val="$_NOT_"/>
    <s:alias val="$not"/>
    <s:alias val="$logic_not"/>
    <path d="M0,0 L0,20 L20,10 Z" class="cell_$auto$opt_dff.cc:233:make_patterns_logic$92"/>
    <circle cx="23" cy="10" r="3" class="cell_$auto$opt_dff.cc:233:make_patterns_logic$92"/>
    <g s:x="0" s:y="10" s:pid="A"/>
    <g s:x="25" s:y="10" s:pid="Y"/>
  </g>
  <g s:type="generic" transform="translate(586,485.5)" s:width="30" s:height="40" id="cell_$auto$opt_dff.cc:243:make_patterns_logic$95">
    <text x="15" y="-4" class="nodelabel cell_$auto$opt_dff.cc:243:make_patterns_logic$95" s:attribute="ref">$reduce_and</text>
    <rect width="30" height="20" s:generic="body" class="cell_$auto$opt_dff.cc:243:make_patterns_logic$95"/>
    <g transform="translate(0,10)" s:x="0" s:y="10" s:pid="in0" id="port_$auto$opt_dff.cc:243:make_patterns_logic$95~A">
      <text x="-3" y="-4" class="inputPortLabel cell_$auto$opt_dff.cc:243:make_patterns_logic$95">A</text>
    </g>
    <g transform="translate(30,10)" s:x="30" s:y="10" s:pid="out0" id="port_$auto$opt_dff.cc:243:make_patterns_logic$95~Y">
      <text x="5" y="-4" style="fill:#000; stroke:none" class="cell_$auto$opt_dff.cc:243:make_patterns_logic$95">Y</text>
    </g>
  </g>
  <g s:type="generic" transform="translate(1266,106)" s:width="30" s:height="40" id="cell_$auto$opt_dff.cc:764:run$89">
    <text x="15" y="-4" class="nodelabel cell_$auto$opt_dff.cc:764:run$89" s:attribute="ref">$adffe</text>
    <rect width="30" height="80" s:generic="body" class="cell_$auto$opt_dff.cc:764:run$89"/>
    <g transform="translate(0,10)" s:x="0" s:y="10" s:pid="in0" id="port_$auto$opt_dff.cc:764:run$89~ARST">
      <text x="-3" y="-4" class="inputPortLabel cell_$auto$opt_dff.cc:764:run$89">ARST</text>
    </g>
    <g transform="translate(0,30)" s:x="0" s:y="10" s:pid="in0" id="port_$auto$opt_dff.cc:764:run$89~CLK">
      <text x="-3" y="-4" class="inputPortLabel cell_$auto$opt_dff.cc:764:run$89">CLK</text>
    </g>
    <g transform="translate(0,50)" s:x="0" s:y="10" s:pid="in0" id="port_$auto$opt_dff.cc:764:run$89~D">
      <text x="-3" y="-4" class="inputPortLabel cell_$auto$opt_dff.cc:764:run$89">D</text>
    </g>
    <g transform="translate(0,70)" s:x="0" s:y="10" s:pid="in0" id="port_$auto$opt_dff.cc:764:run$89~EN">
      <text x="-3" y="-4" class="inputPortLabel cell_$auto$opt_dff.cc:764:run$89">EN</text>
    </g>
    <g transform="translate(30,10)" s:x="30" s:y="10" s:pid="out0" id="port_$auto$opt_dff.cc:764:run$89~Q">
      <text x="5" y="-4" style="fill:#000; stroke:none" class="cell_$auto$opt_dff.cc:764:run$89">Q</text>
    </g>
  </g>
  <g s:type="generic" transform="translate(929,146)" s:width="30" s:height="40" id="cell_$auto$opt_dff.cc:764:run$96">
    <text x="15" y="-4" class="nodelabel cell_$auto$opt_dff.cc:764:run$96" s:attribute="ref">$adffe</text>
    <rect width="30" height="80" s:generic="body" class="cell_$auto$opt_dff.cc:764:run$96"/>
    <g transform="translate(0,10)" s:x="0" s:y="10" s:pid="in0" id="port_$auto$opt_dff.cc:764:run$96~ARST">
      <text x="-3" y="-4" class="inputPortLabel cell_$auto$opt_dff.cc:764:run$96">ARST</text>
    </g>
    <g transform="translate(0,30)" s:x="0" s:y="10" s:pid="in0" id="port_$auto$opt_dff.cc:764:run$96~CLK">
      <text x="-3" y="-4" class="inputPortLabel cell_$auto$opt_dff.cc:764:run$96">CLK</text>
    </g>
    <g transform="translate(0,50)" s:x="0" s:y="10" s:pid="in0" id="port_$auto$opt_dff.cc:764:run$96~D">
      <text x="-3" y="-4" class="inputPortLabel cell_$auto$opt_dff.cc:764:run$96">D</text>
    </g>
    <g transform="translate(0,70)" s:x="0" s:y="10" s:pid="in0" id="port_$auto$opt_dff.cc:764:run$96~EN">
      <text x="-3" y="-4" class="inputPortLabel cell_$auto$opt_dff.cc:764:run$96">EN</text>
    </g>
    <g transform="translate(30,10)" s:x="30" s:y="10" s:pid="out0" id="port_$auto$opt_dff.cc:764:run$96~Q">
      <text x="5" y="-4" style="fill:#000; stroke:none" class="cell_$auto$opt_dff.cc:764:run$96">Q</text>
    </g>
  </g>
  <g s:type="mux" transform="translate(1186,136.5)" s:width="20" s:height="40" id="cell_$procmux$26">
    <s:alias val="$pmux"/>
    <s:alias val="$mux"/>
    <s:alias val="$_MUX_"/>
    <path d="M0,0 L20,10 L20,30 L0,40 Z" class="cell_$procmux$26"/>
    <g s:x="0" s:y="10" s:pid="A"/>
    <g s:x="0" s:y="30" s:pid="B"/>
    <g s:x="10" s:y="35" s:pid="S"/>
    <g s:x="20" s:y="20" s:pid="Y"/>
  </g>
  <g s:type="eq" transform="translate(966.3333333333334,583)" s:width="25" s:height="25" id="cell_$procmux$61_CMP0">
    <s:alias val="$eq"/>
    <circle r="12.5" cx="12.5" cy="12.5" class="cell_$procmux$61_CMP0"/>
    <line x1="7.5" x2="17.5" y1="10" y2="10" class="cell_$procmux$61_CMP0"/>
    <line x1="7.5" x2="17.5" y1="15" y2="15" class="cell_$procmux$61_CMP0"/>
    <g s:x="3" s:y="5" s:pid="A"/>
    <g s:x="3" s:y="20" s:pid="B"/>
    <g s:x="25" s:y="12.5" s:pid="Y"/>
  </g>
  <g s:type="eq" transform="translate(966.3333333333334,659)" s:width="25" s:height="25" id="cell_$procmux$62_CMP0">
    <s:alias val="$eq"/>
    <circle r="12.5" cx="12.5" cy="12.5" class="cell_$procmux$62_CMP0"/>
    <line x1="7.5" x2="17.5" y1="10" y2="10" class="cell_$procmux$62_CMP0"/>
    <line x1="7.5" x2="17.5" y1="15" y2="15" class="cell_$procmux$62_CMP0"/>
    <g s:x="3" s:y="5" s:pid="A"/>
    <g s:x="3" s:y="20" s:pid="B"/>
    <g s:x="25" s:y="12.5" s:pid="Y"/>
  </g>
  <g s:type="mux" transform="translate(667,319.5)" s:width="20" s:height="40" id="cell_$procmux$78">
    <s:alias val="$pmux"/>
    <s:alias val="$mux"/>
    <s:alias val="$_MUX_"/>
    <path d="M0,0 L20,10 L20,30 L0,40 Z" class="cell_$procmux$78"/>
    <g s:x="0" s:y="10" s:pid="A"/>
    <g s:x="0" s:y="30" s:pid="B"/>
    <g s:x="10" s:y="35" s:pid="S"/>
    <g s:x="20" s:y="20" s:pid="Y"/>
  </g>
  <g s:type="not" transform="translate(83,471)" s:width="30" s:height="20" id="cell_$procmux$79_CMP0">
    <s:alias val="$_NOT_"/>
    <s:alias val="$not"/>
    <s:alias val="$logic_not"/>
    <path d="M0,0 L0,20 L20,10 Z" class="cell_$procmux$79_CMP0"/>
    <circle cx="23" cy="10" r="3" class="cell_$procmux$79_CMP0"/>
    <g s:x="0" s:y="10" s:pid="A"/>
    <g s:x="25" s:y="10" s:pid="Y"/>
  </g>
  <g s:type="eq" transform="translate(84.66666666666667,526)" s:width="25" s:height="25" id="cell_$procmux$80_CMP0">
    <s:alias val="$eq"/>
    <circle r="12.5" cx="12.5" cy="12.5" class="cell_$procmux$80_CMP0"/>
    <line x1="7.5" x2="17.5" y1="10" y2="10" class="cell_$procmux$80_CMP0"/>
    <line x1="7.5" x2="17.5" y1="15" y2="15" class="cell_$procmux$80_CMP0"/>
    <g s:x="3" s:y="5" s:pid="A"/>
    <g s:x="3" s:y="20" s:pid="B"/>
    <g s:x="25" s:y="12.5" s:pid="Y"/>
  </g>
  <g s:type="inputExt" transform="translate(586,166.5)" s:width="30" s:height="20" id="cell_clk_i">
    <text x="15" y="-4" class="nodelabel cell_clk_i" s:attribute="ref">clk_i</text>
    <s:alias val="$_inputExt_"/>
    <path d="M0,0 L0,20 L15,20 L30,10 L15,0 Z" class="cell_clk_i"/>
    <g s:x="28" s:y="10" s:pid="Y"/>
  </g>
  <g s:type="inputExt" transform="translate(148,593)" s:width="30" s:height="20" id="cell_halt_i">
    <text x="15" y="-4" class="nodelabel cell_halt_i" s:attribute="ref">halt_i</text>
    <s:alias val="$_inputExt_"/>
    <path d="M0,0 L0,20 L15,20 L30,10 L15,0 Z" class="cell_halt_i"/>
    <g s:x="28" s:y="10" s:pid="Y"/>
  </g>
  <g s:type="inputExt" transform="translate(586,33)" s:width="30" s:height="20" id="cell_n_rst_i">
    <text x="15" y="-4" class="nodelabel cell_n_rst_i" s:attribute="ref">n_rst_i</text>
    <s:alias val="$_inputExt_"/>
    <path d="M0,0 L0,20 L15,20 L30,10 L15,0 Z" class="cell_n_rst_i"/>
    <g s:x="28" s:y="10" s:pid="Y"/>
  </g>
  <g s:type="inputExt" transform="translate(12,613)" s:width="30" s:height="20" id="cell_mode_i">
    <text x="15" y="-4" class="nodelabel cell_mode_i" s:attribute="ref">mode_i</text>
    <s:alias val="$_inputExt_"/>
    <path d="M0,0 L0,20 L15,20 L30,10 L15,0 Z" class="cell_mode_i"/>
    <g s:x="28" s:y="10" s:pid="Y"/>
  </g>
  <g s:type="inputExt" transform="translate(226,264.5)" s:width="30" s:height="20" id="cell_data_i">
    <text x="15" y="-4" class="nodelabel cell_data_i" s:attribute="ref">data_i</text>
    <s:alias val="$_inputExt_"/>
    <path d="M0,0 L0,20 L15,20 L30,10 L15,0 Z" class="cell_data_i"/>
    <g s:x="28" s:y="10" s:pid="Y"/>
  </g>
  <g s:type="outputExt" transform="translate(1463,106.5)" s:width="30" s:height="20" id="cell_addr_o">
    <text x="15" y="-4" class="nodelabel cell_addr_o" s:attribute="ref">addr_o</text>
    <s:alias val="$_outputExt_"/>
    <path d="M30,0 L30,20 L15,20 L0,10 L15,0 Z" class="cell_addr_o"/>
    <g s:x="0" s:y="10" s:pid="A"/>
  </g>
  <g s:type="constant" transform="translate(148,394.5)" s:width="30" s:height="20" id="cell_1">
    <text x="15" y="-4" class="nodelabel cell_1" s:attribute="ref">1</text>
    <s:alias val="$_constant_"/>
    <rect width="30" height="20" class="cell_1"/>
    <g s:x="30" s:y="10" s:pid="Y"/>
  </g>
  <g s:type="constant" transform="translate(586,593)" s:width="30" s:height="20" id="cell_10">
    <text x="15" y="-4" class="nodelabel cell_10" s:attribute="ref">10</text>
    <s:alias val="$_constant_"/>
    <rect width="30" height="20" class="cell_10"/>
    <g s:x="30" s:y="10" s:pid="Y"/>
  </g>
  <g s:type="constant" transform="translate(586,669)" s:width="30" s:height="20" id="cell_01">
    <text x="15" y="-4" class="nodelabel cell_01" s:attribute="ref">01</text>
    <s:alias val="$_constant_"/>
    <rect width="30" height="20" class="cell_01"/>
    <g s:x="30" s:y="10" s:pid="Y"/>
  </g>
  <g s:type="constant" transform="translate(226,329.5)" s:width="30" s:height="20" id="cell_0000000000">
    <text x="15" y="-4" class="nodelabel cell_0000000000" s:attribute="ref">0x0</text>
    <s:alias val="$_constant_"/>
    <rect width="30" height="20" class="cell_0000000000"/>
    <g s:x="30" s:y="10" s:pid="Y"/>
  </g>
  <g s:type="constant" transform="translate(12,678)" s:width="30" s:height="20" id="cell_11">
    <text x="15" y="-4" class="nodelabel cell_11" s:attribute="ref">11</text>
    <s:alias val="$_constant_"/>
    <rect width="30" height="20" class="cell_11"/>
    <g s:x="30" s:y="10" s:pid="Y"/>
  </g>
  <g s:type="join" transform="translate(653.75,221.5)" s:width="4" s:height="40" id="cell_$join$,7,8,9,10,11,12,13,14,14,14,">
    <rect width="5" height="60" class="splitjoinBody" s:generic="body"/>
    <s:alias val="$_join_"/>
    <g s:x="5" s:y="20" s:pid="out"/>
    <g transform="translate(0,10)" s:x="0" s:y="10" s:pid="in0">
      <text x="-3" y="-4" class="inputPortLabel">0:7</text>
    </g>
    <g transform="translate(0,30)" s:x="0" s:y="10" s:pid="in0">
      <text x="-3" y="-4" class="inputPortLabel">8</text>
    </g>
    <g transform="translate(0,50)" s:x="0" s:y="10" s:pid="in0">
      <text x="-3" y="-4" class="inputPortLabel">9</text>
    </g>
  </g>
  <g s:type="join" transform="translate(161,508)" s:width="4" s:height="40" id="cell_$join$,45,46,">
    <rect width="5" height="40" class="splitjoinBody" s:generic="body"/>
    <s:alias val="$_join_"/>
    <g s:x="5" s:y="20" s:pid="out"/>
    <g transform="translate(0,10)" s:x="0" s:y="10" s:pid="in0">
      <text x="-3" y="-4" class="inputPortLabel">0</text>
    </g>
    <g transform="translate(0,30)" s:x="0" s:y="10" s:pid="in0">
      <text x="-3" y="-4" class="inputPortLabel">1</text>
    </g>
  </g>
  <g s:type="join" transform="translate(532.3333333333334,475.5)" s:width="4" s:height="40" id="cell_$join$,48,47,">
    <rect width="5" height="40" class="splitjoinBody" s:generic="body"/>
    <s:alias val="$_join_"/>
    <g s:x="5" s:y="20" s:pid="out"/>
    <g transform="translate(0,10)" s:x="0" s:y="10" s:pid="in0">
      <text x="-3" y="-4" class="inputPortLabel">0</text>
    </g>
    <g transform="translate(0,30)" s:x="0" s:y="10" s:pid="in0">
      <text x="-3" y="-4" class="inputPortLabel">1</text>
    </g>
  </g>
  <g s:type="join" transform="translate(1145,146)" s:width="4" s:height="40" id="cell_$join$,70,71,72,73,74,75,76,77,78,79,7,8,9,10,11,12,13,14,14,14,25,26,27,28,29,30,31,32,33,34,35,36,37,38,39,40,41,42,43,44,">
    <rect width="5" height="80" class="splitjoinBody" s:generic="body"/>
    <s:alias val="$_join_"/>
    <g s:x="5" s:y="20" s:pid="out"/>
    <g transform="translate(0,10)" s:x="0" s:y="10" s:pid="in0">
      <text x="-3" y="-4" class="inputPortLabel">0:9</text>
    </g>
    <g transform="translate(0,30)" s:x="0" s:y="10" s:pid="in0">
      <text x="-3" y="-4" class="inputPortLabel">10:19</text>
    </g>
    <g transform="translate(0,50)" s:x="0" s:y="10" s:pid="in0">
      <text x="-3" y="-4" class="inputPortLabel">20:29</text>
    </g>
    <g transform="translate(0,70)" s:x="0" s:y="10" s:pid="in0">
      <text x="-3" y="-4" class="inputPortLabel">30:39</text>
    </g>
  </g>
  <g s:type="join" transform="translate(1145,565)" s:width="4" s:height="40" id="cell_$join$,45,46,80,81,">
    <rect width="5" height="60" class="splitjoinBody" s:generic="body"/>
    <s:alias val="$_join_"/>
    <g s:x="5" s:y="20" s:pid="out"/>
    <g transform="translate(0,10)" s:x="0" s:y="10" s:pid="in0">
      <text x="-3" y="-4" class="inputPortLabel">0:1</text>
    </g>
    <g transform="translate(0,30)" s:x="0" s:y="10" s:pid="in0">
      <text x="-3" y="-4" class="inputPortLabel">2</text>
    </g>
    <g transform="translate(0,50)" s:x="0" s:y="10" s:pid="in0">
      <text x="-3" y="-4" class="inputPortLabel">3</text>
    </g>
  </g>
  <g s:type="join" transform="translate(538,329)" s:width="4" s:height="40" id="cell_$join$,87,88,89,90,91,92,93,94,95,96,35,36,37,38,39,40,41,42,43,44,">
    <rect width="5" height="40" class="splitjoinBody" s:generic="body"/>
    <s:alias val="$_join_"/>
    <g s:x="5" s:y="20" s:pid="out"/>
    <g transform="translate(0,10)" s:x="0" s:y="10" s:pid="in0">
      <text x="-3" y="-4" class="inputPortLabel">0:9</text>
    </g>
    <g transform="translate(0,30)" s:x="0" s:y="10" s:pid="in0">
      <text x="-3" y="-4" class="inputPortLabel">10:19</text>
    </g>
  </g>
  <g s:type="split" transform="translate(532,241.5)" s:width="5" s:height="40" id="cell_$split$,7,8,9,10,11,12,13,14,">
    <rect width="5" height="20" class="splitjoinBody" s:generic="body"/>
    <s:alias val="$_split_"/>
    <g s:x="0" s:y="20" s:pid="in"/>
    <g transform="translate(4,10)" s:x="4" s:y="10" s:pid="out0">
      <text x="5" y="-4">7</text>
    </g>
  </g>
  <line x1="1297" x2="1438" y1="116.5" y2="116.5" class="net_15,16,17,18,19,20,21,22,23,24"/>
  <line x1="1438" x2="1438" y1="116.5" y2="12" class="net_15,16,17,18,19,20,21,22,23,24"/>
  <line x1="1438" x2="874" y1="12" y2="12" class="net_15,16,17,18,19,20,21,22,23,24"/>
  <line x1="874" x2="874" y1="12" y2="81" class="net_15,16,17,18,19,20,21,22,23,24"/>
  <circle cx="874" cy="12" r="2" style="fill:#000" class="net_15,16,17,18,19,20,21,22,23,24"/>
  <circle cx="1438" cy="116.5" r="2" style="fill:#000" class="net_15,16,17,18,19,20,21,22,23,24"/>
  <line x1="874" x2="971" y1="81" y2="81" class="net_15,16,17,18,19,20,21,22,23,24"/>
  <line x1="1297" x2="1438" y1="116.5" y2="116.5" class="net_15,16,17,18,19,20,21,22,23,24"/>
  <line x1="1438" x2="1438" y1="116.5" y2="12" class="net_15,16,17,18,19,20,21,22,23,24"/>
  <line x1="1438" x2="204" y1="12" y2="12" class="net_15,16,17,18,19,20,21,22,23,24"/>
  <line x1="204" x2="204" y1="12" y2="389.5" class="net_15,16,17,18,19,20,21,22,23,24"/>
  <line x1="204" x2="306" y1="389.5" y2="389.5" class="net_15,16,17,18,19,20,21,22,23,24"/>
  <line x1="1297" x2="1463" y1="116.5" y2="116.5" class="net_15,16,17,18,19,20,21,22,23,24"/>
  <line x1="659.75" x2="874" y1="242" y2="242" class="net_7,8,9,10,11,12,13,14,14,14"/>
  <line x1="874" x2="874" y1="242" y2="96" class="net_7,8,9,10,11,12,13,14,14,14"/>
  <circle cx="874" cy="242" r="2" style="fill:#000" class="net_7,8,9,10,11,12,13,14,14,14"/>
  <line x1="874" x2="971" y1="96" y2="96" class="net_7,8,9,10,11,12,13,14,14,14"/>
  <line x1="659.75" x2="1101" y1="242" y2="242" class="net_7,8,9,10,11,12,13,14,14,14"/>
  <line x1="1101" x2="1101" y1="242" y2="176.5" class="net_7,8,9,10,11,12,13,14,14,14"/>
  <line x1="1101" x2="1145" y1="176.5" y2="176.5" class="net_7,8,9,10,11,12,13,14,14,14"/>
  <line x1="178" x2="306" y1="404.5" y2="404.5" class="net_82"/>
  <line x1="167" x2="204" y1="528.5" y2="528.5" class="net_45,46"/>
  <line x1="204" x2="204" y1="528.5" y2="506" class="net_45,46"/>
  <circle cx="204" cy="528.5" r="2" style="fill:#000" class="net_45,46"/>
  <circle cx="204" cy="506" r="2" style="fill:#000" class="net_45,46"/>
  <line x1="204" x2="226" y1="506" y2="506" class="net_45,46"/>
  <line x1="167" x2="204" y1="528.5" y2="528.5" class="net_45,46"/>
  <line x1="204" x2="204" y1="528.5" y2="419.5" class="net_45,46"/>
  <line x1="204" x2="677" y1="419.5" y2="419.5" class="net_45,46"/>
  <line x1="677" x2="677" y1="419.5" y2="354.5" class="net_45,46"/>
  <line x1="167" x2="1101" y1="528.5" y2="528.5" class="net_45,46"/>
  <line x1="1101" x2="1101" y1="528.5" y2="575.5" class="net_45,46"/>
  <line x1="1101" x2="1145" y1="575.5" y2="575.5" class="net_45,46"/>
  <line x1="176" x2="194" y1="603" y2="603" class="net_3"/>
  <line x1="194" x2="194" y1="603" y2="440.5" class="net_3"/>
  <circle cx="194" cy="603" r="2" style="fill:#000" class="net_3"/>
  <line x1="194" x2="336.5" y1="440.5" y2="440.5" class="net_3"/>
  <line x1="176" x2="194" y1="603" y2="603" class="net_3"/>
  <line x1="194" x2="194" y1="603" y2="699" class="net_3"/>
  <line x1="194" x2="1216" y1="699" y2="699" class="net_3"/>
  <line x1="1216" x2="1216" y1="699" y2="176.5" class="net_3"/>
  <line x1="1216" x2="1266" y1="176.5" y2="176.5" class="net_3"/>
  <line x1="538.3333333333334" x2="586" y1="496" y2="496" class="net_48,47"/>
  <line x1="614" x2="1226" y1="43" y2="43" class="net_4"/>
  <line x1="1226" x2="1226" y1="43" y2="116.5" class="net_4"/>
  <line x1="1226" x2="1266" y1="116.5" y2="116.5" class="net_4"/>
  <line x1="614" x2="854" y1="43" y2="43" class="net_4"/>
  <line x1="854" x2="854" y1="43" y2="156.5" class="net_4"/>
  <circle cx="854" cy="43" r="2" style="fill:#000" class="net_4"/>
  <line x1="854" x2="929" y1="156.5" y2="156.5" class="net_4"/>
  <line x1="614" x2="864" y1="176.5" y2="176.5" class="net_2"/>
  <line x1="864" x2="864" y1="176.5" y2="54" class="net_2"/>
  <line x1="864" x2="1216" y1="54" y2="54" class="net_2"/>
  <line x1="1216" x2="1216" y1="54" y2="136.5" class="net_2"/>
  <circle cx="864" cy="176.5" r="2" style="fill:#000" class="net_2"/>
  <line x1="1216" x2="1266" y1="136.5" y2="136.5" class="net_2"/>
  <line x1="614" x2="929" y1="176.5" y2="176.5" class="net_2"/>
  <line x1="1206" x2="1266" y1="156.5" y2="156.5" class="net_50,51,52,53,54,55,56,57,58,59"/>
  <line x1="687" x2="884" y1="339.5" y2="339.5" class="net_60,61,62,63,64,65,66,67,68,69"/>
  <line x1="884" x2="884" y1="339.5" y2="196.5" class="net_60,61,62,63,64,65,66,67,68,69"/>
  <line x1="884" x2="929" y1="196.5" y2="196.5" class="net_60,61,62,63,64,65,66,67,68,69"/>
  <line x1="617" x2="894" y1="496" y2="496" class="net_49"/>
  <line x1="894" x2="894" y1="496" y2="216.5" class="net_49"/>
  <line x1="894" x2="929" y1="216.5" y2="216.5" class="net_49"/>
  <line x1="554" x2="1161" y1="65" y2="146.5" class="net_x,x,x,x,x,x,x,x,x,x"/>
  <line x1="1161" x2="1186" y1="146.5" y2="146.5" class="net_x,x,x,x,x,x,x,x,x,x"/>
  <line x1="554" x2="554" y1="65" y2="329.5" class="net_x,x,x,x,x,x,x,x,x,x"/>
  <line x1="554" x2="667" y1="329.5" y2="329.5" class="net_x,x,x,x,x,x,x,x,x,x"/>
  <line x1="1151" x2="1186" y1="166.5" y2="166.5" class="net_70,71,72,73,74,75,76,77,78,79,7,8,9,10,11,12,13,14,14,14,25,26,27,28,29,30,31,32,33,34,35,36,37,38,39,40,41,42,43,44"/>
  <line x1="1151" x2="1196" y1="585.5" y2="585.5" class="net_45,46,80,81"/>
  <line x1="1196" x2="1196" y1="585.5" y2="171.5" class="net_45,46,80,81"/>
  <line x1="40" x2="554" y1="623" y2="623" class="net_5,6"/>
  <line x1="554" x2="554" y1="623" y2="572" class="net_5,6"/>
  <line x1="554" x2="854" y1="572" y2="572" class="net_5,6"/>
  <line x1="854" x2="854" y1="572" y2="588" class="net_5,6"/>
  <circle cx="554" cy="623" r="2" style="fill:#000" class="net_5,6"/>
  <line x1="854" x2="969.3333333333334" y1="588" y2="588" class="net_5,6"/>
  <line x1="40" x2="854" y1="623" y2="623" class="net_5,6"/>
  <line x1="854" x2="854" y1="623" y2="664" class="net_5,6"/>
  <line x1="854" x2="969.3333333333334" y1="664" y2="664" class="net_5,6"/>
  <line x1="40" x2="58" y1="623" y2="623" class="net_5,6"/>
  <line x1="58" x2="58" y1="623" y2="481" class="net_5,6"/>
  <circle cx="58" cy="623" r="2" style="fill:#000" class="net_5,6"/>
  <line x1="58" x2="83" y1="481" y2="481" class="net_5,6"/>
  <line x1="40" x2="58" y1="623" y2="623" class="net_5,6"/>
  <line x1="58" x2="58" y1="623" y2="531" class="net_5,6"/>
  <circle cx="58" cy="531" r="2" style="fill:#000" class="net_5,6"/>
  <line x1="58" x2="87.66666666666667" y1="531" y2="531" class="net_5,6"/>
  <line x1="616" x2="969.3333333333334" y1="603" y2="603" class="net_83,84"/>
  <line x1="616" x2="969.3333333333334" y1="679" y2="679" class="net_85,86"/>
  <line x1="544" x2="667" y1="349.5" y2="349.5" class="net_87,88,89,90,91,92,93,94,95,96,35,36,37,38,39,40,41,42,43,44"/>
  <line x1="42" x2="68" y1="688" y2="688" class="net_97,98"/>
  <line x1="68" x2="68" y1="688" y2="546" class="net_97,98"/>
  <line x1="68" x2="87.66666666666667" y1="546" y2="546" class="net_97,98"/>
  <line x1="254" x2="494" y1="274.5" y2="274.5" class="net_7,8,9,10,11,12,13,14"/>
  <line x1="494" x2="494" y1="274.5" y2="54" class="net_7,8,9,10,11,12,13,14"/>
  <line x1="494" x2="564" y1="54" y2="54" class="net_7,8,9,10,11,12,13,14"/>
  <line x1="564" x2="564" y1="54" y2="232" class="net_7,8,9,10,11,12,13,14"/>
  <circle cx="494" cy="274.5" r="2" style="fill:#000" class="net_7,8,9,10,11,12,13,14"/>
  <line x1="564" x2="653.75" y1="232" y2="232" class="net_7,8,9,10,11,12,13,14"/>
  <line x1="254" x2="532.5" y1="274.5" y2="274.5" class="net_7,8,9,10,11,12,13,14"/>
  <line x1="532.5" x2="532.5" y1="274.5" y2="262.5" class="net_7,8,9,10,11,12,13,14"/>
  <line x1="537" x2="653.75" y1="252" y2="252" class="net_14"/>
  <line x1="537" x2="564" y1="252" y2="252" class="net_14"/>
  <line x1="564" x2="564" y1="252" y2="272" class="net_14"/>
  <circle cx="564" cy="252" r="2" style="fill:#000" class="net_14"/>
  <line x1="564" x2="653.75" y1="272" y2="272" class="net_14"/>
  <line x1="108" x2="123" y1="481" y2="481" class="net_45"/>
  <line x1="123" x2="123" y1="481" y2="518.5" class="net_45"/>
  <line x1="123" x2="161" y1="518.5" y2="518.5" class="net_45"/>
  <line x1="109.66666666666667" x2="161" y1="538.5" y2="538.5" class="net_46"/>
  <line x1="361.5" x2="494" y1="440.5" y2="440.5" class="net_48"/>
  <line x1="494" x2="494" y1="440.5" y2="486" class="net_48"/>
  <line x1="494" x2="532.3333333333334" y1="486" y2="486" class="net_48"/>
  <line x1="257" x2="532.3333333333334" y1="506" y2="506" class="net_47"/>
  <line x1="960" x2="1145" y1="156.5" y2="156.5" class="net_70,71,72,73,74,75,76,77,78,79"/>
  <line x1="993" x2="1111" y1="88.5" y2="88.5" class="net_25,26,27,28,29,30,31,32,33,34"/>
  <line x1="1111" x2="1111" y1="88.5" y2="196.5" class="net_25,26,27,28,29,30,31,32,33,34"/>
  <line x1="1111" x2="1145" y1="196.5" y2="196.5" class="net_25,26,27,28,29,30,31,32,33,34"/>
  <line x1="328" x2="1145.5" y1="397" y2="397" class="net_35,36,37,38,39,40,41,42,43,44"/>
  <line x1="1145.5" x2="1145.5" y1="397" y2="217" class="net_35,36,37,38,39,40,41,42,43,44"/>
  <line x1="328" x2="494" y1="397" y2="397" class="net_35,36,37,38,39,40,41,42,43,44"/>
  <line x1="494" x2="494" y1="397" y2="359.5" class="net_35,36,37,38,39,40,41,42,43,44"/>
  <circle cx="494" cy="397" r="2" style="fill:#000" class="net_35,36,37,38,39,40,41,42,43,44"/>
  <line x1="494" x2="538" y1="359.5" y2="359.5" class="net_35,36,37,38,39,40,41,42,43,44"/>
  <line x1="991.3333333333334" x2="1145" y1="595.5" y2="595.5" class="net_80"/>
  <line x1="991.3333333333334" x2="1101" y1="671.5" y2="671.5" class="net_81"/>
  <line x1="1101" x2="1101" y1="671.5" y2="615.5" class="net_81"/>
  <line x1="1101" x2="1145" y1="615.5" y2="615.5" class="net_81"/>
  <line x1="256" x2="538" y1="339.5" y2="339.5" class="net_87,88,89,90,91,92,93,94,95,96"/>
</svg>
