<svg xmlns="http://www.w3.org/2000/svg" xmlns:xlink="http://www.w3.org/1999/xlink" xmlns:s="https://github.com/nturley/netlistsvg" width="1088" height="907.5">
  <style>svg {
    stroke:#000;
    fill:none;
  }
  text {
    fill:#000;
    stroke:none;
    font-size:10px;
    font-weight: bold;
    font-family: "Courier New", monospace;
  }
  .nodelabel {
    text-anchor: middle;
  }
  .inputPortLabel {
    text-anchor: end;
  }
  .splitjoinBody {
    fill:#000;
  }</style>
  <g s:type="and" transform="translate(364.66666666666663,492.5)" s:width="30" s:height="25" id="cell_$and$rf.v:25$12">
    <s:alias val="$and"/>
    <s:alias val="$logic_and"/>
    <s:alias val="$_AND_"/>
    <path d="M0,0 L0,25 L15,25 A15 12.5 0 0 0 15,0 Z" class="cell_$and$rf.v:25$12"/>
    <g s:x="0" s:y="5" s:pid="A"/>
    <g s:x="0" s:y="20" s:pid="B"/>
    <g s:x="30" s:y="12.5" s:pid="Y"/>
  </g>
  <g s:type="and" transform="translate(468,500)" s:width="30" s:height="25" id="cell_$and$rf.v:25$14">
    <s:alias val="$and"/>
    <s:alias val="$logic_and"/>
    <s:alias val="$_AND_"/>
    <path d="M0,0 L0,25 L15,25 A15 12.5 0 0 0 15,0 Z" class="cell_$and$rf.v:25$14"/>
    <g s:x="0" s:y="5" s:pid="A"/>
    <g s:x="0" s:y="20" s:pid="B"/>
    <g s:x="30" s:y="12.5" s:pid="Y"/>
  </g>
  <g s:type="generic" transform="translate(860,22)" s:width="30" s:height="40" id="cell_$auto$proc_memwr.cc:37:proc_memwr$36">
    <text x="15" y="-4" class="nodelabel cell_$auto$proc_memwr.cc:37:proc_memwr$36" s:attribute="ref">$memwr</text>
    <rect width="30" height="80" s:generic="body" class="cell_$auto$proc_memwr.cc:37:proc_memwr$36"/>
    <g transform="translate(0,10)" s:x="0" s:y="10" s:pid="in0" id="port_$auto$proc_memwr.cc:37:proc_memwr$36~ADDR">
      <text x="-3" y="-4" class="inputPortLabel cell_$auto$proc_memwr.cc:37:proc_memwr$36">ADDR</text>
    </g>
    <g transform="translate(0,30)" s:x="0" s:y="10" s:pid="in0" id="port_$auto$proc_memwr.cc:37:proc_memwr$36~CLK">
      <text x="-3" y="-4" class="inputPortLabel cell_$auto$proc_memwr.cc:37:proc_memwr$36">CLK</text>
    </g>
    <g transform="translate(0,50)" s:x="0" s:y="10" s:pid="in0" id="port_$auto$proc_memwr.cc:37:proc_memwr$36~DATA">
      <text x="-3" y="-4" class="inputPortLabel cell_$auto$proc_memwr.cc:37:proc_memwr$36">DATA</text>
    </g>
    <g transform="translate(0,70)" s:x="0" s:y="10" s:pid="in0" id="port_$auto$proc_memwr.cc:37:proc_memwr$36~EN">
      <text x="-3" y="-4" class="inputPortLabel cell_$auto$proc_memwr.cc:37:proc_memwr$36">EN</text>
    </g>
  </g>
  <g s:type="generic" transform="translate(860,152)" s:width="30" s:height="40" id="cell_$auto$proc_memwr.cc:37:proc_memwr$37">
    <text x="15" y="-4" class="nodelabel cell_$auto$proc_memwr.cc:37:proc_memwr$37" s:attribute="ref">$memwr</text>
    <rect width="30" height="80" s:generic="body" class="cell_$auto$proc_memwr.cc:37:proc_memwr$37"/>
    <g transform="translate(0,10)" s:x="0" s:y="10" s:pid="in0" id="port_$auto$proc_memwr.cc:37:proc_memwr$37~ADDR">
      <text x="-3" y="-4" class="inputPortLabel cell_$auto$proc_memwr.cc:37:proc_memwr$37">ADDR</text>
    </g>
    <g transform="translate(0,30)" s:x="0" s:y="10" s:pid="in0" id="port_$auto$proc_memwr.cc:37:proc_memwr$37~CLK">
      <text x="-3" y="-4" class="inputPortLabel cell_$auto$proc_memwr.cc:37:proc_memwr$37">CLK</text>
    </g>
    <g transform="translate(0,50)" s:x="0" s:y="10" s:pid="in0" id="port_$auto$proc_memwr.cc:37:proc_memwr$37~DATA">
      <text x="-3" y="-4" class="inputPortLabel cell_$auto$proc_memwr.cc:37:proc_memwr$37">DATA</text>
    </g>
    <g transform="translate(0,70)" s:x="0" s:y="10" s:pid="in0" id="port_$auto$proc_memwr.cc:37:proc_memwr$37~EN">
      <text x="-3" y="-4" class="inputPortLabel cell_$auto$proc_memwr.cc:37:proc_memwr$37">EN</text>
    </g>
  </g>
  <g s:type="generic" transform="translate(860,412)" s:width="30" s:height="40" id="cell_$auto$proc_memwr.cc:37:proc_memwr$38">
    <text x="15" y="-4" class="nodelabel cell_$auto$proc_memwr.cc:37:proc_memwr$38" s:attribute="ref">$memwr</text>
    <rect width="30" height="80" s:generic="body" class="cell_$auto$proc_memwr.cc:37:proc_memwr$38"/>
    <g transform="translate(0,10)" s:x="0" s:y="10" s:pid="in0" id="port_$auto$proc_memwr.cc:37:proc_memwr$38~ADDR">
      <text x="-3" y="-4" class="inputPortLabel cell_$auto$proc_memwr.cc:37:proc_memwr$38">ADDR</text>
    </g>
    <g transform="translate(0,30)" s:x="0" s:y="10" s:pid="in0" id="port_$auto$proc_memwr.cc:37:proc_memwr$38~CLK">
      <text x="-3" y="-4" class="inputPortLabel cell_$auto$proc_memwr.cc:37:proc_memwr$38">CLK</text>
    </g>
    <g transform="translate(0,50)" s:x="0" s:y="10" s:pid="in0" id="port_$auto$proc_memwr.cc:37:proc_memwr$38~DATA">
      <text x="-3" y="-4" class="inputPortLabel cell_$auto$proc_memwr.cc:37:proc_memwr$38">DATA</text>
    </g>
    <g transform="translate(0,70)" s:x="0" s:y="10" s:pid="in0" id="port_$auto$proc_memwr.cc:37:proc_memwr$38~EN">
      <text x="-3" y="-4" class="inputPortLabel cell_$auto$proc_memwr.cc:37:proc_memwr$38">EN</text>
    </g>
  </g>
  <g s:type="generic" transform="translate(647,724.5)" s:width="30" s:height="40" id="cell_$memrd$\regs$rf.v:29$19">
    <text x="15" y="-4" class="nodelabel cell_$memrd$\regs$rf.v:29$19" s:attribute="ref">$memrd</text>
    <rect width="30" height="60" s:generic="body" class="cell_$memrd$\regs$rf.v:29$19"/>
    <g transform="translate(0,10)" s:x="0" s:y="10" s:pid="in0" id="port_$memrd$\regs$rf.v:29$19~ADDR">
      <text x="-3" y="-4" class="inputPortLabel cell_$memrd$\regs$rf.v:29$19">ADDR</text>
    </g>
    <g transform="translate(0,30)" s:x="0" s:y="10" s:pid="in0" id="port_$memrd$\regs$rf.v:29$19~CLK">
      <text x="-3" y="-4" class="inputPortLabel cell_$memrd$\regs$rf.v:29$19">CLK</text>
    </g>
    <g transform="translate(0,50)" s:x="0" s:y="10" s:pid="in0" id="port_$memrd$\regs$rf.v:29$19~EN">
      <text x="-3" y="-4" class="inputPortLabel cell_$memrd$\regs$rf.v:29$19">EN</text>
    </g>
    <g transform="translate(30,10)" s:x="30" s:y="10" s:pid="out0" id="port_$memrd$\regs$rf.v:29$19~DATA">
      <text x="5" y="-4" style="fill:#000; stroke:none" class="cell_$memrd$\regs$rf.v:29$19">DATA</text>
    </g>
  </g>
  <g s:type="generic" transform="translate(647,832.5)" s:width="30" s:height="40" id="cell_$memrd$\regs$rf.v:30$20">
    <text x="15" y="-4" class="nodelabel cell_$memrd$\regs$rf.v:30$20" s:attribute="ref">$memrd</text>
    <rect width="30" height="60" s:generic="body" class="cell_$memrd$\regs$rf.v:30$20"/>
    <g transform="translate(0,10)" s:x="0" s:y="10" s:pid="in0" id="port_$memrd$\regs$rf.v:30$20~ADDR">
      <text x="-3" y="-4" class="inputPortLabel cell_$memrd$\regs$rf.v:30$20">ADDR</text>
    </g>
    <g transform="translate(0,30)" s:x="0" s:y="10" s:pid="in0" id="port_$memrd$\regs$rf.v:30$20~CLK">
      <text x="-3" y="-4" class="inputPortLabel cell_$memrd$\regs$rf.v:30$20">CLK</text>
    </g>
    <g transform="translate(0,50)" s:x="0" s:y="10" s:pid="in0" id="port_$memrd$\regs$rf.v:30$20~EN">
      <text x="-3" y="-4" class="inputPortLabel cell_$memrd$\regs$rf.v:30$20">EN</text>
    </g>
    <g transform="translate(30,10)" s:x="30" s:y="10" s:pid="out0" id="port_$memrd$\regs$rf.v:30$20~DATA">
      <text x="5" y="-4" style="fill:#000; stroke:none" class="cell_$memrd$\regs$rf.v:30$20">DATA</text>
    </g>
  </g>
  <g s:type="generic" transform="translate(223,552.5)" s:width="30" s:height="40" id="cell_$ne$rf.v:25$11">
    <text x="15" y="-4" class="nodelabel cell_$ne$rf.v:25$11" s:attribute="ref">$reduce_bool</text>
    <rect width="30" height="20" s:generic="body" class="cell_$ne$rf.v:25$11"/>
    <g transform="translate(0,10)" s:x="0" s:y="10" s:pid="in0" id="port_$ne$rf.v:25$11~A">
      <text x="-3" y="-4" class="inputPortLabel cell_$ne$rf.v:25$11">A</text>
    </g>
    <g transform="translate(30,10)" s:x="30" s:y="10" s:pid="out0" id="port_$ne$rf.v:25$11~Y">
      <text x="5" y="-4" style="fill:#000; stroke:none" class="cell_$ne$rf.v:25$11">Y</text>
    </g>
  </g>
  <g s:type="generic" transform="translate(349,575)" s:width="30" s:height="40" id="cell_$ne$rf.v:25$13">
    <text x="15" y="-4" class="nodelabel cell_$ne$rf.v:25$13" s:attribute="ref">$ne</text>
    <rect width="30" height="40" s:generic="body" class="cell_$ne$rf.v:25$13"/>
    <g transform="translate(0,10)" s:x="0" s:y="10" s:pid="in0" id="port_$ne$rf.v:25$13~A">
      <text x="-3" y="-4" class="inputPortLabel cell_$ne$rf.v:25$13">A</text>
    </g>
    <g transform="translate(0,30)" s:x="0" s:y="10" s:pid="in0" id="port_$ne$rf.v:25$13~B">
      <text x="-3" y="-4" class="inputPortLabel cell_$ne$rf.v:25$13">B</text>
    </g>
    <g transform="translate(30,10)" s:x="30" s:y="10" s:pid="out0" id="port_$ne$rf.v:25$13~Y">
      <text x="5" y="-4" style="fill:#000; stroke:none" class="cell_$ne$rf.v:25$13">Y</text>
    </g>
  </g>
  <g s:type="mux" transform="translate(544.3333333333333,645)" s:width="20" s:height="40" id="cell_$procmux$22">
    <s:alias val="$pmux"/>
    <s:alias val="$mux"/>
    <s:alias val="$_MUX_"/>
    <path d="M0,0 L20,10 L20,30 L0,40 Z" class="cell_$procmux$22"/>
    <g s:x="0" s:y="10" s:pid="A"/>
    <g s:x="0" s:y="30" s:pid="B"/>
    <g s:x="10" s:y="35" s:pid="S"/>
    <g s:x="20" s:y="20" s:pid="Y"/>
  </g>
  <g s:type="mux" transform="translate(693.5,462.5)" s:width="20" s:height="40" id="cell_$procmux$25">
    <s:alias val="$pmux"/>
    <s:alias val="$mux"/>
    <s:alias val="$_MUX_"/>
    <path d="M0,0 L20,10 L20,30 L0,40 Z" class="cell_$procmux$25"/>
    <g s:x="0" s:y="10" s:pid="A"/>
    <g s:x="0" s:y="30" s:pid="B"/>
    <g s:x="10" s:y="35" s:pid="S"/>
    <g s:x="20" s:y="20" s:pid="Y"/>
  </g>
  <g s:type="mux" transform="translate(693.5,402.5)" s:width="20" s:height="40" id="cell_$procmux$28">
    <s:alias val="$pmux"/>
    <s:alias val="$mux"/>
    <s:alias val="$_MUX_"/>
    <path d="M0,0 L20,10 L20,30 L0,40 Z" class="cell_$procmux$28"/>
    <g s:x="0" s:y="10" s:pid="A"/>
    <g s:x="0" s:y="30" s:pid="B"/>
    <g s:x="10" s:y="35" s:pid="S"/>
    <g s:x="20" s:y="20" s:pid="Y"/>
  </g>
  <g s:type="inputExt" transform="translate(647,282.5)" s:width="30" s:height="20" id="cell_clk_i">
    <text x="15" y="-4" class="nodelabel cell_clk_i" s:attribute="ref">clk_i</text>
    <s:alias val="$_inputExt_"/>
    <path d="M0,0 L0,20 L15,20 L30,10 L15,0 Z" class="cell_clk_i"/>
    <g s:x="28" s:y="10" s:pid="Y"/>
  </g>
  <g s:type="inputExt" transform="translate(223,487.5)" s:width="30" s:height="20" id="cell_wr_en_i">
    <text x="15" y="-4" class="nodelabel cell_wr_en_i" s:attribute="ref">wr_en_i</text>
    <s:alias val="$_inputExt_"/>
    <path d="M0,0 L0,20 L15,20 L30,10 L15,0 Z" class="cell_wr_en_i"/>
    <g s:x="28" s:y="10" s:pid="Y"/>
  </g>
  <g s:type="inputExt" transform="translate(647,347.5)" s:width="30" s:height="20" id="cell_ext_data_i">
    <text x="15" y="-4" class="nodelabel cell_ext_data_i" s:attribute="ref">ext_data_i</text>
    <s:alias val="$_inputExt_"/>
    <path d="M0,0 L0,20 L15,20 L30,10 L15,0 Z" class="cell_ext_data_i"/>
    <g s:x="28" s:y="10" s:pid="Y"/>
  </g>
  <g s:type="inputExt" transform="translate(533,482.5)" s:width="30" s:height="20" id="cell_wd_data_i">
    <text x="15" y="-4" class="nodelabel cell_wd_data_i" s:attribute="ref">wd_data_i</text>
    <s:alias val="$_inputExt_"/>
    <path d="M0,0 L0,20 L15,20 L30,10 L15,0 Z" class="cell_wd_data_i"/>
    <g s:x="28" s:y="10" s:pid="Y"/>
  </g>
  <g s:type="inputExt" transform="translate(533,725)" s:width="30" s:height="20" id="cell_rs_addr_i">
    <text x="15" y="-4" class="nodelabel cell_rs_addr_i" s:attribute="ref">rs_addr_i</text>
    <s:alias val="$_inputExt_"/>
    <path d="M0,0 L0,20 L15,20 L30,10 L15,0 Z" class="cell_rs_addr_i"/>
    <g s:x="28" s:y="10" s:pid="Y"/>
  </g>
  <g s:type="inputExt" transform="translate(127,553)" s:width="30" s:height="20" id="cell_rd_addr_i">
    <text x="15" y="-4" class="nodelabel cell_rd_addr_i" s:attribute="ref">rd_addr_i</text>
    <s:alias val="$_inputExt_"/>
    <path d="M0,0 L0,20 L15,20 L30,10 L15,0 Z" class="cell_rd_addr_i"/>
    <g s:x="28" s:y="10" s:pid="Y"/>
  </g>
  <g s:type="outputExt" transform="translate(860,725)" s:width="30" s:height="20" id="cell_rs_data_o">
    <text x="15" y="-4" class="nodelabel cell_rs_data_o" s:attribute="ref">rs_data_o</text>
    <s:alias val="$_outputExt_"/>
    <path d="M30,0 L30,20 L15,20 L0,10 L15,0 Z" class="cell_rs_data_o"/>
    <g s:x="0" s:y="10" s:pid="A"/>
  </g>
  <g s:type="outputExt" transform="translate(860,833)" s:width="30" s:height="20" id="cell_rd_data_o">
    <text x="15" y="-4" class="nodelabel cell_rd_data_o" s:attribute="ref">rd_data_o</text>
    <s:alias val="$_outputExt_"/>
    <path d="M30,0 L30,20 L15,20 L0,10 L15,0 Z" class="cell_rd_data_o"/>
    <g s:x="0" s:y="10" s:pid="A"/>
  </g>
  <g s:type="constant" transform="translate(647,22.5)" s:width="30" s:height="20" id="cell_00000000000000000000000000000000">
    <text x="15" y="-4" class="nodelabel cell_00000000000000000000000000000000" s:attribute="ref">0x0</text>
    <s:alias val="$_constant_"/>
    <rect width="30" height="20" class="cell_00000000000000000000000000000000"/>
    <g s:x="30" s:y="10" s:pid="Y"/>
  </g>
  <g s:type="constant" transform="translate(647,87.5)" s:width="30" s:height="20" id="cell_00000000">
    <text x="15" y="-4" class="nodelabel cell_00000000" s:attribute="ref">0x0</text>
    <s:alias val="$_constant_"/>
    <rect width="30" height="20" class="cell_00000000"/>
    <g s:x="30" s:y="10" s:pid="Y"/>
  </g>
  <g s:type="constant" transform="translate(647,217.5)" s:width="30" s:height="20" id="cell_11111111">
    <text x="15" y="-4" class="nodelabel cell_11111111" s:attribute="ref">0xff</text>
    <s:alias val="$_constant_"/>
    <rect width="30" height="20" class="cell_11111111"/>
    <g s:x="30" s:y="10" s:pid="Y"/>
  </g>
  <g s:type="constant" transform="translate(647,152.5)" s:width="30" s:height="20" id="cell_00000000000000000000000000011110">
    <text x="15" y="-4" class="nodelabel cell_00000000000000000000000000011110" s:attribute="ref">0x1e</text>
    <s:alias val="$_constant_"/>
    <rect width="30" height="20" class="cell_00000000000000000000000000011110"/>
    <g s:x="30" s:y="10" s:pid="Y"/>
  </g>
  <g s:type="constant" transform="translate(223,606.5)" s:width="30" s:height="20" id="cell_11110">
    <text x="15" y="-4" class="nodelabel cell_11110" s:attribute="ref">0x1e</text>
    <s:alias val="$_constant_"/>
    <rect width="30" height="20" class="cell_11110"/>
    <g s:x="30" s:y="10" s:pid="Y"/>
  </g>
  <g s:type="constant" transform="translate(468,645)" s:width="30" s:height="20" id="cell_0">
    <text x="15" y="-4" class="nodelabel cell_0" s:attribute="ref">0</text>
    <s:alias val="$_constant_"/>
    <rect width="30" height="20" class="cell_0"/>
    <g s:x="30" s:y="10" s:pid="Y"/>
  </g>
  <g s:type="constant" transform="translate(468,710)" s:width="30" s:height="20" id="cell_1">
    <text x="15" y="-4" class="nodelabel cell_1" s:attribute="ref">1</text>
    <s:alias val="$_constant_"/>
    <rect width="30" height="20" class="cell_1"/>
    <g s:x="30" s:y="10" s:pid="Y"/>
  </g>
  <g s:type="join" transform="translate(662.5714285714286,534.5)" s:width="4" s:height="40" id="cell_$join$,63,63,63,63,63,63,63,63,">
    <rect width="5" height="160" class="splitjoinBody" s:generic="body"/>
    <s:alias val="$_join_"/>
    <g s:x="5" s:y="20" s:pid="out"/>
    <g transform="translate(0,10)" s:x="0" s:y="10" s:pid="in0">
      <text x="-3" y="-4" class="inputPortLabel">0</text>
    </g>
    <g transform="translate(0,30)" s:x="0" s:y="10" s:pid="in0">
      <text x="-3" y="-4" class="inputPortLabel">1</text>
    </g>
    <g transform="translate(0,50)" s:x="0" s:y="10" s:pid="in0">
      <text x="-3" y="-4" class="inputPortLabel">2</text>
    </g>
    <g transform="translate(0,70)" s:x="0" s:y="10" s:pid="in0">
      <text x="-3" y="-4" class="inputPortLabel">3</text>
    </g>
    <g transform="translate(0,90)" s:x="0" s:y="10" s:pid="in0">
      <text x="-3" y="-4" class="inputPortLabel">4</text>
    </g>
    <g transform="translate(0,110)" s:x="0" s:y="10" s:pid="in0">
      <text x="-3" y="-4" class="inputPortLabel">5</text>
    </g>
    <g transform="translate(0,130)" s:x="0" s:y="10" s:pid="in0">
      <text x="-3" y="-4" class="inputPortLabel">6</text>
    </g>
    <g transform="translate(0,150)" s:x="0" s:y="10" s:pid="in0">
      <text x="-3" y="-4" class="inputPortLabel">7</text>
    </g>
  </g>
  <g s:type="join" transform="translate(109,34)" s:width="4" s:height="40" id="cell_$join$,x,x,x,x,x,x,x,x,">
    <rect width="5" height="40" class="splitjoinBody" s:generic="body"/>
    <s:alias val="$_join_"/>
    <g s:x="5" s:y="20" s:pid="out"/>
    <g transform="translate(0,10)" s:x="0" s:y="10" s:pid="in0">
      <text x="-3" y="-4" class="inputPortLabel">0:4</text>
    </g>
  </g>
  <g s:type="join" transform="translate(47,24)" s:width="4" s:height="40" id="cell_$join$,x,x,x,x,x,">
    <rect width="5" height="100" class="splitjoinBody" s:generic="body"/>
    <s:alias val="$_join_"/>
    <g s:x="5" s:y="20" s:pid="out"/>
    <g transform="translate(0,10)" s:x="0" s:y="10" s:pid="in0">
      <text x="-3" y="-4" class="inputPortLabel">0</text>
    </g>
    <g transform="translate(0,30)" s:x="0" s:y="10" s:pid="in0">
      <text x="-3" y="-4" class="inputPortLabel">1</text>
    </g>
    <g transform="translate(0,50)" s:x="0" s:y="10" s:pid="in0">
      <text x="-3" y="-4" class="inputPortLabel">2</text>
    </g>
    <g transform="translate(0,70)" s:x="0" s:y="10" s:pid="in0">
      <text x="-3" y="-4" class="inputPortLabel">3</text>
    </g>
    <g transform="translate(0,90)" s:x="0" s:y="10" s:pid="in0">
      <text x="-3" y="-4" class="inputPortLabel">4</text>
    </g>
  </g>
  <line x1="251" x2="364.66666666666663" y1="497.5" y2="497.5" class="net_3"/>
  <line x1="254" x2="317" y1="563" y2="563" class="net_46"/>
  <line x1="317" x2="317" y1="563" y2="512.5" class="net_46"/>
  <line x1="317" x2="364.66666666666663" y1="512.5" y2="512.5" class="net_46"/>
  <line x1="394.66666666666663" x2="468" y1="505" y2="505" class="net_47"/>
  <line x1="380" x2="443" y1="585.5" y2="585.5" class="net_48"/>
  <line x1="443" x2="443" y1="585.5" y2="520" class="net_48"/>
  <line x1="443" x2="468" y1="520" y2="520" class="net_48"/>
  <line x1="677" x2="860" y1="32.5" y2="32.5" class="net_64,65,66,67,68,69,70,71,72,73,74,75,76,77,78,79,80,81,82,83,84,85,86,87,88,89,90,91,92,93,94,95"/>
  <line x1="675" x2="805" y1="292.5" y2="292.5" class="net_2"/>
  <line x1="805" x2="805" y1="292.5" y2="52.5" class="net_2"/>
  <circle cx="805" cy="292.5" r="2" style="fill:#000" class="net_2"/>
  <line x1="805" x2="860" y1="52.5" y2="52.5" class="net_2"/>
  <line x1="675" x2="805" y1="292.5" y2="292.5" class="net_2"/>
  <line x1="805" x2="805" y1="292.5" y2="182.5" class="net_2"/>
  <circle cx="805" cy="182.5" r="2" style="fill:#000" class="net_2"/>
  <line x1="805" x2="860" y1="182.5" y2="182.5" class="net_2"/>
  <line x1="675" x2="805" y1="292.5" y2="292.5" class="net_2"/>
  <line x1="805" x2="805" y1="292.5" y2="442.5" class="net_2"/>
  <line x1="805" x2="860" y1="442.5" y2="442.5" class="net_2"/>
  <line x1="677" x2="795" y1="97.5" y2="97.5" class="net_96,97,98,99,100,101,102,103"/>
  <line x1="795" x2="795" y1="97.5" y2="72.5" class="net_96,97,98,99,100,101,102,103"/>
  <line x1="795" x2="860" y1="72.5" y2="72.5" class="net_96,97,98,99,100,101,102,103"/>
  <line x1="677" x2="815" y1="227.5" y2="227.5" class="net_104,105,106,107,108,109,110,111"/>
  <line x1="815" x2="815" y1="227.5" y2="92.5" class="net_104,105,106,107,108,109,110,111"/>
  <line x1="815" x2="860" y1="92.5" y2="92.5" class="net_104,105,106,107,108,109,110,111"/>
  <line x1="677" x2="815" y1="227.5" y2="227.5" class="net_104,105,106,107,108,109,110,111"/>
  <line x1="815" x2="815" y1="227.5" y2="222.5" class="net_104,105,106,107,108,109,110,111"/>
  <circle cx="815" cy="222.5" r="2" style="fill:#000" class="net_104,105,106,107,108,109,110,111"/>
  <line x1="815" x2="860" y1="222.5" y2="222.5" class="net_104,105,106,107,108,109,110,111"/>
  <line x1="677" x2="860" y1="162.5" y2="162.5" class="net_112,113,114,115,116,117,118,119,120,121,122,123,124,125,126,127,128,129,130,131,132,133,134,135,136,137,138,139,140,141,142,143"/>
  <line x1="675" x2="825" y1="357.5" y2="357.5" class="net_4,5,6,7,8,9,10,11"/>
  <line x1="825" x2="825" y1="357.5" y2="202.5" class="net_4,5,6,7,8,9,10,11"/>
  <line x1="825" x2="860" y1="202.5" y2="202.5" class="net_4,5,6,7,8,9,10,11"/>
  <line x1="713.5" x2="860" y1="422.5" y2="422.5" class="net_50,51,52,53,54"/>
  <line x1="713.5" x2="795" y1="482.5" y2="482.5" class="net_55,56,57,58,59,60,61,62"/>
  <line x1="795" x2="795" y1="482.5" y2="462.5" class="net_55,56,57,58,59,60,61,62"/>
  <line x1="795" x2="860" y1="462.5" y2="462.5" class="net_55,56,57,58,59,60,61,62"/>
  <line x1="668.5714285714286" x2="805" y1="555" y2="555" class="net_63,63,63,63,63,63,63,63"/>
  <line x1="805" x2="805" y1="555" y2="482.5" class="net_63,63,63,63,63,63,63,63"/>
  <line x1="805" x2="860" y1="482.5" y2="482.5" class="net_63,63,63,63,63,63,63,63"/>
  <line x1="561" x2="647" y1="735" y2="735" class="net_20,21,22,23,24"/>
  <line x1="597" x2="597" y1="854" y2="755" class="net_x"/>
  <line x1="597" x2="647" y1="755" y2="755" class="net_x"/>
  <line x1="597" x2="597" y1="854" y2="775" class="net_x"/>
  <circle cx="597" cy="775" r="2" style="fill:#000" class="net_x"/>
  <line x1="597" x2="647" y1="775" y2="775" class="net_x"/>
  <line x1="597" x2="597" y1="854" y2="863" class="net_x"/>
  <circle cx="597" cy="863" r="2" style="fill:#000" class="net_x"/>
  <line x1="597" x2="647" y1="863" y2="863" class="net_x"/>
  <line x1="597" x2="597" y1="854" y2="883" class="net_x"/>
  <line x1="597" x2="647" y1="883" y2="883" class="net_x"/>
  <line x1="155" x2="191" y1="563" y2="563" class="net_25,26,27,28,29"/>
  <line x1="191" x2="191" y1="563" y2="843" class="net_25,26,27,28,29"/>
  <circle cx="191" cy="563" r="2" style="fill:#000" class="net_25,26,27,28,29"/>
  <line x1="191" x2="647" y1="843" y2="843" class="net_25,26,27,28,29"/>
  <line x1="155" x2="223" y1="563" y2="563" class="net_25,26,27,28,29"/>
  <line x1="155" x2="191" y1="563" y2="563" class="net_25,26,27,28,29"/>
  <line x1="191" x2="191" y1="563" y2="585.5" class="net_25,26,27,28,29"/>
  <circle cx="191" cy="585.5" r="2" style="fill:#000" class="net_25,26,27,28,29"/>
  <line x1="191" x2="349" y1="585.5" y2="585.5" class="net_25,26,27,28,29"/>
  <line x1="155" x2="191" y1="563" y2="563" class="net_25,26,27,28,29"/>
  <line x1="191" x2="191" y1="563" y2="432.5" class="net_25,26,27,28,29"/>
  <line x1="191" x2="693.5" y1="432.5" y2="432.5" class="net_25,26,27,28,29"/>
  <line x1="253" x2="317" y1="616.5" y2="616.5" class="net_152,153,154,155,156"/>
  <line x1="317" x2="317" y1="616.5" y2="605.5" class="net_152,153,154,155,156"/>
  <line x1="317" x2="349" y1="605.5" y2="605.5" class="net_152,153,154,155,156"/>
  <line x1="498" x2="544.3333333333333" y1="655" y2="655" class="net_157"/>
  <line x1="498" x2="508" y1="720" y2="720" class="net_158"/>
  <line x1="508" x2="508" y1="720" y2="675" class="net_158"/>
  <line x1="508" x2="544.3333333333333" y1="675" y2="675" class="net_158"/>
  <line x1="498" x2="518" y1="512.5" y2="512.5" class="net_49"/>
  <line x1="518" x2="518" y1="512.5" y2="695" class="net_49"/>
  <line x1="518" x2="554.3333333333333" y1="695" y2="695" class="net_49"/>
  <circle cx="518" cy="512.5" r="2" style="fill:#000" class="net_49"/>
  <line x1="554.3333333333333" x2="554.3333333333333" y1="695" y2="680" class="net_49"/>
  <line x1="498" x2="703.5" y1="512.5" y2="512.5" class="net_49"/>
  <line x1="703.5" x2="703.5" y1="512.5" y2="497.5" class="net_49"/>
  <line x1="498" x2="518" y1="512.5" y2="512.5" class="net_49"/>
  <line x1="518" x2="518" y1="512.5" y2="452.5" class="net_49"/>
  <line x1="518" x2="703.5" y1="452.5" y2="452.5" class="net_49"/>
  <line x1="703.5" x2="703.5" y1="452.5" y2="437.5" class="net_49"/>
  <line x1="561" x2="693.5" y1="492.5" y2="492.5" class="net_12,13,14,15,16,17,18,19"/>
  <line x1="678" x2="860" y1="735" y2="735" class="net_30,31,32,33,34,35,36,37"/>
  <line x1="678" x2="860" y1="843" y2="843" class="net_38,39,40,41,42,43,44,45"/>
  <line x1="564.3333333333333" x2="597" y1="665" y2="665" class="net_63"/>
  <line x1="597" x2="597" y1="665" y2="522.5" class="net_63"/>
  <line x1="597" x2="663.0714285714286" y1="522.5" y2="522.5" class="net_63"/>
  <circle cx="597" cy="665" r="2" style="fill:#000" class="net_63"/>
  <line x1="663.0714285714286" x2="663.0714285714286" y1="522.5" y2="544.5" class="net_63"/>
  <line x1="564.3333333333333" x2="597" y1="665" y2="665" class="net_63"/>
  <line x1="597" x2="597" y1="665" y2="565" class="net_63"/>
  <circle cx="597" cy="565" r="2" style="fill:#000" class="net_63"/>
  <line x1="597" x2="662.5714285714286" y1="565" y2="565" class="net_63"/>
  <line x1="564.3333333333333" x2="597" y1="665" y2="665" class="net_63"/>
  <line x1="597" x2="597" y1="665" y2="585" class="net_63"/>
  <circle cx="597" cy="585" r="2" style="fill:#000" class="net_63"/>
  <line x1="597" x2="662.5714285714286" y1="585" y2="585" class="net_63"/>
  <line x1="564.3333333333333" x2="597" y1="665" y2="665" class="net_63"/>
  <line x1="597" x2="597" y1="665" y2="605" class="net_63"/>
  <circle cx="597" cy="605" r="2" style="fill:#000" class="net_63"/>
  <line x1="597" x2="662.5714285714286" y1="605" y2="605" class="net_63"/>
  <line x1="564.3333333333333" x2="597" y1="665" y2="665" class="net_63"/>
  <line x1="597" x2="597" y1="665" y2="625" class="net_63"/>
  <circle cx="597" cy="625" r="2" style="fill:#000" class="net_63"/>
  <line x1="597" x2="662.5714285714286" y1="625" y2="625" class="net_63"/>
  <line x1="564.3333333333333" x2="597" y1="665" y2="665" class="net_63"/>
  <line x1="597" x2="597" y1="665" y2="645" class="net_63"/>
  <circle cx="597" cy="645" r="2" style="fill:#000" class="net_63"/>
  <line x1="597" x2="662.5714285714286" y1="645" y2="645" class="net_63"/>
  <line x1="564.3333333333333" x2="662.5714285714286" y1="665" y2="665" class="net_63"/>
  <line x1="564.3333333333333" x2="597" y1="665" y2="665" class="net_63"/>
  <line x1="597" x2="597" y1="665" y2="704.5" class="net_63"/>
  <line x1="597" x2="663.0714285714286" y1="704.5" y2="704.5" class="net_63"/>
  <line x1="663.0714285714286" x2="663.0714285714286" y1="704.5" y2="685.5" class="net_63"/>
  <line x1="53" x2="109" y1="44.5" y2="44.5" class="net_NaN,NaN,NaN,NaN,NaN"/>
  <line x1="22" x2="47.5" y1="12" y2="34" class="net_NaN"/>
  <line x1="22" x2="22" y1="12" y2="54.5" class="net_NaN"/>
  <circle cx="22" cy="54.5" r="2" style="fill:#000" class="net_NaN"/>
  <line x1="22" x2="47" y1="54.5" y2="54.5" class="net_NaN"/>
  <line x1="22" x2="22" y1="12" y2="74.5" class="net_NaN"/>
  <circle cx="22" cy="74.5" r="2" style="fill:#000" class="net_NaN"/>
  <line x1="22" x2="47" y1="74.5" y2="74.5" class="net_NaN"/>
  <line x1="22" x2="22" y1="12" y2="94.5" class="net_NaN"/>
  <circle cx="22" cy="94.5" r="2" style="fill:#000" class="net_NaN"/>
  <line x1="22" x2="47" y1="94.5" y2="94.5" class="net_NaN"/>
  <line x1="22" x2="22" y1="12" y2="134" class="net_NaN"/>
  <line x1="22" x2="47.5" y1="134" y2="134" class="net_NaN"/>
  <line x1="47.5" x2="47.5" y1="134" y2="115" class="net_NaN"/>
</svg>
